<?xml version="1.0" encoding="utf-8"?>
<!-- Generator: Adobe Illustrator 25.4.1, SVG Export Plug-In . SVG Version: 6.00 Build 0)  -->
<svg version="1.1" id="Layer_1" xmlns="http://www.w3.org/2000/svg" xmlns:xlink="http://www.w3.org/1999/xlink" x="0px" y="0px"
	 viewBox="0 0 1020.65 125.19" style="enable-background:new 0 0 1020.65 125.19;" xml:space="preserve">
<style type="text/css">
	.st0{fill:#656C73;}
	.st1{fill:#EA4335;}
	.st2{fill:#4285F4;}
	.st3{fill:#FBBC04;}
	.st4{fill:#34A853;}
</style>
<g>
	<g>
		<path class="st0" d="M159.62,50.33c-3.5-2-6.26-4.76-8.28-8.28c-2.02-3.52-3.04-7.4-3.04-11.66s1.01-8.14,3.04-11.66
			c2.03-3.52,4.79-6.28,8.28-8.28c3.5-2,7.31-3.01,11.44-3.01c3.23,0,6.27,0.57,9.11,1.72c2.84,1.14,5.18,2.76,7.02,4.85l-3.74,3.74
			c-1.39-1.72-3.18-3.04-5.37-3.96c-2.19-0.92-4.53-1.38-7.03-1.38c-3.07,0-5.94,0.75-8.62,2.24c-2.68,1.5-4.83,3.6-6.44,6.32
			c-1.62,2.72-2.42,5.86-2.42,9.42c0,3.56,0.81,6.7,2.42,9.42c1.62,2.72,3.76,4.83,6.44,6.32c2.68,1.5,5.56,2.24,8.62,2.24
			c2.95,0,5.41-0.46,7.39-1.38c1.98-0.92,3.71-2.14,5.19-3.65c1.06-1.14,1.92-2.54,2.58-4.17c0.65-1.64,1.04-3.41,1.17-5.34h-16.2
			v-4.85h21.11c0.21,1.15,0.31,2.21,0.31,3.19c0,2.7-0.43,5.33-1.29,7.89c-0.86,2.56-2.23,4.8-4.11,6.72
			c-4.13,4.38-9.51,6.56-16.14,6.56C166.93,53.33,163.12,52.33,159.62,50.33z"/>
		<path class="st0" d="M204.07,51.22c-2.37-1.41-4.22-3.35-5.55-5.83c-1.33-2.47-1.99-5.22-1.99-8.25c0-3.03,0.66-5.78,1.99-8.25
			c1.33-2.48,3.18-4.42,5.55-5.83c2.37-1.41,5.05-2.12,8.04-2.12c2.99,0,5.68,0.7,8.07,2.12c2.39,1.41,4.25,3.35,5.58,5.83
			c1.33,2.48,1.99,5.22,1.99,8.25c0,3.03-0.67,5.78-1.99,8.25c-1.33,2.48-3.19,4.42-5.58,5.83c-2.39,1.41-5.08,2.11-8.07,2.11
			C209.12,53.33,206.45,52.63,204.07,51.22z M217.26,47.2c1.6-0.94,2.87-2.28,3.84-4.02c0.96-1.74,1.44-3.75,1.44-6.04
			c0-2.29-0.48-4.3-1.44-6.04c-0.96-1.74-2.24-3.08-3.84-4.02c-1.59-0.94-3.31-1.41-5.15-1.41c-1.8,0-3.5,0.47-5.09,1.41
			c-1.59,0.94-2.87,2.28-3.83,4.02c-0.96,1.74-1.44,3.75-1.44,6.04c0,2.29,0.48,4.31,1.44,6.04c0.96,1.74,2.24,3.08,3.83,4.02
			c1.6,0.94,3.29,1.41,5.09,1.41C213.95,48.61,215.67,48.14,217.26,47.2z"/>
		<path class="st0" d="M238.86,51.22c-2.37-1.41-4.22-3.35-5.55-5.83c-1.33-2.47-1.99-5.22-1.99-8.25c0-3.03,0.66-5.78,1.99-8.25
			c1.33-2.48,3.18-4.42,5.55-5.83c2.37-1.41,5.05-2.12,8.04-2.12c2.99,0,5.68,0.7,8.07,2.12c2.39,1.41,4.25,3.35,5.58,5.83
			c1.33,2.48,1.99,5.22,1.99,8.25c0,3.03-0.67,5.78-1.99,8.25c-1.33,2.48-3.19,4.42-5.58,5.83c-2.39,1.41-5.08,2.11-8.07,2.11
			C243.91,53.33,241.24,52.63,238.86,51.22z M252.06,47.2c1.6-0.94,2.87-2.28,3.84-4.02c0.96-1.74,1.44-3.75,1.44-6.04
			c0-2.29-0.48-4.3-1.44-6.04c-0.96-1.74-2.24-3.08-3.84-4.02c-1.59-0.94-3.31-1.41-5.15-1.41c-1.8,0-3.5,0.47-5.09,1.41
			c-1.59,0.94-2.87,2.28-3.83,4.02c-0.96,1.74-1.44,3.75-1.44,6.04c0,2.29,0.48,4.31,1.44,6.04c0.96,1.74,2.24,3.08,3.83,4.02
			c1.6,0.94,3.29,1.41,5.09,1.41C248.74,48.61,250.46,48.14,252.06,47.2z"/>
		<path class="st0" d="M272.18,63.95c-2.33-1.76-3.91-3.8-4.73-6.14l4.85-2.03c0.61,1.8,1.71,3.26,3.28,4.39
			c1.57,1.12,3.45,1.69,5.62,1.69c3.23,0,5.71-0.94,7.45-2.81c1.74-1.88,2.61-4.5,2.61-7.86v-3.25h-0.25
			c-0.98,1.56-2.39,2.85-4.23,3.87c-1.84,1.02-3.93,1.53-6.26,1.53c-2.58,0-4.97-0.7-7.18-2.09c-2.21-1.39-3.97-3.32-5.28-5.79
			c-1.31-2.46-1.96-5.24-1.96-8.31c0-3.08,0.65-5.85,1.96-8.31c1.31-2.46,3.07-4.39,5.28-5.79c2.21-1.4,4.6-2.09,7.18-2.09
			c2.33,0,4.42,0.51,6.26,1.53c1.84,1.02,3.25,2.31,4.23,3.87h0.25v-4.42h4.97v29.21c0,3.35-0.66,6.2-1.96,8.53
			c-1.31,2.33-3.1,4.07-5.37,5.21c-2.27,1.14-4.84,1.72-7.7,1.72C277.52,66.59,274.51,65.71,272.18,63.95z M286.29,47.22
			c1.51-0.92,2.73-2.25,3.65-3.98c0.92-1.73,1.38-3.76,1.38-6.11c0-2.34-0.46-4.39-1.38-6.14c-0.92-1.75-2.14-3.07-3.65-3.98
			s-3.17-1.36-4.97-1.36c-1.8,0-3.46,0.46-4.97,1.39c-1.51,0.93-2.73,2.25-3.65,3.98c-0.92,1.73-1.38,3.76-1.38,6.11
			c0,2.35,0.46,4.38,1.38,6.11c0.92,1.73,2.14,3.05,3.65,3.98c1.51,0.93,3.17,1.39,4.97,1.39
			C283.12,48.61,284.78,48.15,286.29,47.22z"/>
		<path class="st0" d="M303.29,8.42h5.21v43.93h-5.21V8.42z"/>
		<path class="st0" d="M320.87,51.25c-2.31-1.39-4.12-3.31-5.43-5.77c-1.31-2.46-1.96-5.24-1.96-8.35c0-2.94,0.61-5.65,1.84-8.13
			c1.23-2.47,2.98-4.44,5.25-5.89c2.27-1.45,4.88-2.18,7.82-2.18c2.95,0,5.53,0.66,7.76,1.99c2.23,1.33,3.93,3.2,5.12,5.62
			c1.19,2.41,1.78,5.2,1.78,8.35c0,0.57-0.04,0.98-0.12,1.23h-24.18c0.08,2.29,0.63,4.22,1.66,5.8c1.02,1.58,2.3,2.75,3.84,3.53
			c1.53,0.78,3.12,1.17,4.75,1.17c3.85,0,6.81-1.88,8.9-5.65l4.6,2.21c-1.31,2.45-3.12,4.43-5.43,5.92
			c-2.31,1.49-5.08,2.24-8.31,2.24C325.81,53.33,323.18,52.64,320.87,51.25z M337.53,33.76c-0.08-1.22-0.43-2.45-1.04-3.68
			c-0.61-1.23-1.61-2.27-2.98-3.13c-1.37-0.86-3.12-1.29-5.25-1.29c-2.29,0-4.28,0.74-5.95,2.21c-1.68,1.47-2.74,3.44-3.19,5.89
			H337.53z"/>
		<path class="st0" d="M362.99,8.42h13.32c4.5,0,8.43,0.93,11.78,2.79c3.35,1.86,5.93,4.45,7.73,7.76c1.8,3.31,2.7,7.12,2.7,11.41
			c0,4.29-0.9,8.1-2.7,11.41c-1.8,3.31-4.38,5.9-7.73,7.76c-3.35,1.86-7.28,2.79-11.78,2.79h-13.32V8.42z M376.31,47.38
			c5.19,0,9.31-1.49,12.33-4.48c3.03-2.99,4.54-7.16,4.54-12.52c0-5.36-1.51-9.53-4.54-12.52c-3.03-2.99-7.14-4.48-12.33-4.48h-8.1
			v33.99H376.31z"/>
		<path class="st0" d="M410.33,51.25c-2.31-1.39-4.12-3.31-5.43-5.77c-1.31-2.46-1.96-5.24-1.96-8.35c0-2.94,0.61-5.65,1.84-8.13
			c1.23-2.47,2.98-4.44,5.25-5.89c2.27-1.45,4.88-2.18,7.82-2.18c2.94,0,5.53,0.66,7.76,1.99c2.23,1.33,3.94,3.2,5.12,5.62
			s1.78,5.2,1.78,8.35c0,0.57-0.04,0.98-0.12,1.23h-24.17c0.08,2.29,0.63,4.22,1.66,5.8c1.02,1.58,2.3,2.75,3.83,3.53
			c1.53,0.78,3.12,1.17,4.76,1.17c3.84,0,6.81-1.88,8.9-5.65l4.6,2.21c-1.31,2.45-3.12,4.43-5.43,5.92
			c-2.31,1.49-5.08,2.24-8.31,2.24C415.27,53.33,412.64,52.64,410.33,51.25z M426.99,33.76c-0.08-1.22-0.43-2.45-1.04-3.68
			s-1.6-2.27-2.98-3.13c-1.37-0.86-3.12-1.29-5.25-1.29c-2.29,0-4.28,0.74-5.95,2.21c-1.68,1.47-2.74,3.44-3.19,5.89H426.99z"/>
		<path class="st0" d="M433.74,21.92h5.65l9.33,24.3h0.12l9.45-24.3h5.52l-12.46,30.43h-5.28L433.74,21.92z"/>
		<path class="st0" d="M473.34,51.25c-2.31-1.39-4.12-3.31-5.43-5.77c-1.31-2.46-1.96-5.24-1.96-8.35c0-2.94,0.61-5.65,1.84-8.13
			c1.23-2.47,2.98-4.44,5.25-5.89c2.27-1.45,4.88-2.18,7.82-2.18c2.95,0,5.53,0.66,7.76,1.99c2.23,1.33,3.93,3.2,5.12,5.62
			c1.19,2.41,1.78,5.2,1.78,8.35c0,0.57-0.04,0.98-0.12,1.23h-24.18c0.08,2.29,0.63,4.22,1.66,5.8c1.02,1.58,2.3,2.75,3.84,3.53
			c1.53,0.78,3.12,1.17,4.75,1.17c3.85,0,6.81-1.88,8.9-5.65l4.6,2.21c-1.31,2.45-3.12,4.43-5.43,5.92
			c-2.31,1.49-5.08,2.24-8.31,2.24C478.29,53.33,475.66,52.64,473.34,51.25z M490,33.76c-0.08-1.22-0.43-2.45-1.04-3.68
			s-1.61-2.27-2.98-3.13c-1.37-0.86-3.12-1.29-5.25-1.29c-2.29,0-4.28,0.74-5.95,2.21c-1.68,1.47-2.74,3.44-3.19,5.89H490z"/>
		<path class="st0" d="M500.8,8.42h5.22v43.93h-5.22V8.42z"/>
		<path class="st0" d="M518.53,51.22c-2.37-1.41-4.22-3.35-5.55-5.83c-1.33-2.47-1.99-5.22-1.99-8.25c0-3.03,0.66-5.78,1.99-8.25
			c1.33-2.48,3.18-4.42,5.55-5.83c2.37-1.41,5.05-2.12,8.04-2.12c2.99,0,5.68,0.7,8.07,2.12c2.39,1.41,4.25,3.35,5.58,5.83
			c1.33,2.48,1.99,5.22,1.99,8.25c0,3.03-0.67,5.78-1.99,8.25c-1.33,2.48-3.19,4.42-5.58,5.83c-2.39,1.41-5.08,2.11-8.07,2.11
			C523.59,53.33,520.91,52.63,518.53,51.22z M531.73,47.2c1.6-0.94,2.87-2.28,3.84-4.02c0.96-1.74,1.44-3.75,1.44-6.04
			c0-2.29-0.48-4.3-1.44-6.04c-0.96-1.74-2.24-3.08-3.84-4.02c-1.59-0.94-3.31-1.41-5.15-1.41c-1.8,0-3.5,0.47-5.09,1.41
			c-1.59,0.94-2.87,2.28-3.83,4.02c-0.96,1.74-1.44,3.75-1.44,6.04c0,2.29,0.48,4.31,1.44,6.04c0.96,1.74,2.24,3.08,3.83,4.02
			c1.6,0.94,3.29,1.41,5.09,1.41C528.41,48.61,530.13,48.14,531.73,47.2z"/>
		<path class="st0" d="M546.95,21.92h4.97v4.48h0.24c0.98-1.55,2.39-2.85,4.23-3.9c1.84-1.04,3.97-1.56,6.38-1.56
			c2.62,0,5.03,0.7,7.24,2.12c2.21,1.41,3.97,3.34,5.28,5.8c1.31,2.46,1.96,5.21,1.96,8.28c0,3.07-0.65,5.83-1.96,8.28
			c-1.31,2.46-3.07,4.39-5.28,5.8c-2.21,1.41-4.62,2.11-7.24,2.11c-2.42,0-4.55-0.52-6.41-1.56c-1.86-1.04-3.26-2.36-4.2-3.96h-0.24
			l0.24,4.23v13.56h-5.21V21.92z M566.98,47.2c1.53-0.94,2.76-2.28,3.68-4.02c0.92-1.74,1.38-3.75,1.38-6.04
			c0-2.29-0.46-4.3-1.38-6.04c-0.92-1.74-2.15-3.08-3.68-4.02c-1.53-0.94-3.2-1.41-5-1.41c-1.8,0-3.47,0.46-5,1.38
			c-1.53,0.92-2.76,2.25-3.68,3.99c-0.92,1.74-1.38,3.77-1.38,6.1c0,2.29,0.46,4.32,1.38,6.08c0.92,1.76,2.15,3.1,3.68,4.02
			c1.53,0.92,3.2,1.38,5,1.38C563.78,48.61,565.44,48.14,566.98,47.2z"/>
		<path class="st0" d="M589.43,51.25c-2.31-1.39-4.12-3.31-5.43-5.77c-1.31-2.46-1.96-5.24-1.96-8.35c0-2.94,0.61-5.65,1.84-8.13
			c1.23-2.47,2.98-4.44,5.25-5.89c2.27-1.45,4.88-2.18,7.82-2.18c2.95,0,5.53,0.66,7.76,1.99c2.23,1.33,3.93,3.2,5.12,5.62
			c1.19,2.41,1.78,5.2,1.78,8.35c0,0.57-0.04,0.98-0.12,1.23h-24.18c0.08,2.29,0.63,4.22,1.66,5.8c1.02,1.58,2.3,2.75,3.84,3.53
			c1.53,0.78,3.12,1.17,4.75,1.17c3.85,0,6.81-1.88,8.9-5.65l4.6,2.21c-1.31,2.45-3.12,4.43-5.43,5.92
			c-2.31,1.49-5.08,2.24-8.31,2.24C594.38,53.33,591.75,52.64,589.43,51.25z M606.09,33.76c-0.08-1.22-0.43-2.45-1.04-3.68
			s-1.61-2.27-2.98-3.13c-1.37-0.86-3.12-1.29-5.25-1.29c-2.29,0-4.28,0.74-5.95,2.21c-1.68,1.47-2.74,3.44-3.19,5.89H606.09z"/>
		<path class="st0" d="M616.89,21.92h4.97v4.97h0.25c0.57-1.68,1.75-3.09,3.53-4.23c1.78-1.14,3.55-1.72,5.31-1.72
			c1.27,0,2.46,0.2,3.56,0.61v5.58c-1.11-0.61-2.54-0.92-4.3-0.92c-1.43,0-2.77,0.42-4.02,1.26c-1.25,0.84-2.24,1.96-2.98,3.35
			c-0.74,1.39-1.11,2.91-1.11,4.55v16.98h-5.22V21.92z"/>
		<path class="st0" d="M657.36,51.95c-2.07-0.92-3.89-2.27-5.46-4.05c-1.57-1.78-2.71-3.94-3.4-6.47l4.97-2.03
			c0.69,2.62,1.98,4.76,3.86,6.44c1.88,1.68,4.07,2.51,6.57,2.51c2.58,0,4.74-0.68,6.5-2.05c1.76-1.37,2.64-3.24,2.64-5.62
			c0-2.04-0.75-3.73-2.24-5.06s-3.94-2.57-7.33-3.71l-2.76-0.98c-3.11-1.1-5.65-2.56-7.61-4.36c-1.96-1.8-2.94-4.29-2.94-7.48
			c0-2.09,0.57-4.02,1.72-5.8c1.14-1.78,2.73-3.2,4.75-4.26s4.3-1.6,6.84-1.6c2.54,0,4.75,0.47,6.66,1.41
			c1.9,0.94,3.41,2.09,4.54,3.44c1.13,1.35,1.89,2.68,2.3,3.99l-4.85,2.09c-0.45-1.56-1.39-2.94-2.82-4.14
			c-1.43-1.21-3.33-1.81-5.71-1.81c-2.25,0-4.17,0.63-5.77,1.9c-1.59,1.27-2.39,2.86-2.39,4.79c0,1.72,0.67,3.12,2.02,4.2
			c1.35,1.08,3.4,2.1,6.14,3.04l2.82,0.98c3.72,1.35,6.64,3.04,8.74,5.06c2.11,2.02,3.16,4.78,3.16,8.25c0,2.82-0.73,5.19-2.18,7.12
			c-1.45,1.92-3.28,3.33-5.49,4.23c-2.21,0.9-4.5,1.35-6.87,1.35C661.56,53.33,659.42,52.87,657.36,51.95z"/>
		<path class="st0" d="M690.98,52.71c-1.04-0.42-1.93-0.98-2.67-1.69c-0.82-0.79-1.42-1.72-1.81-2.78
			c-0.39-1.06-0.58-2.32-0.58-3.78V26.64h-5.4v-4.73h5.4v-9.08h5.15v9.08h7.48v4.73h-7.48v16.57c0,1.76,0.35,3.06,1.04,3.89
			c0.69,0.92,1.76,1.38,3.19,1.38c1.27,0,2.37-0.29,3.31-0.86v5.03c-0.66,0.24-1.28,0.42-1.87,0.52c-0.59,0.1-1.38,0.15-2.36,0.15
			C693.16,53.33,692.02,53.12,690.98,52.71z"/>
		<path class="st0" d="M706.69,50.08c-1.94-2.17-2.92-5.17-2.92-9.02V21.92h5.21V40.2c0,5.6,2.52,8.41,7.55,8.41
			c1.68,0,3.18-0.47,4.51-1.41c1.33-0.94,2.35-2.17,3.07-3.68s1.07-3.11,1.07-4.79V21.92h5.15v30.43h-4.91v-4.54h-0.24
			c-0.9,1.56-2.26,2.86-4.08,3.93c-1.82,1.06-3.77,1.59-5.86,1.59C711.49,53.33,708.63,52.25,706.69,50.08z"/>
		<path class="st0" d="M742.61,51.25c-2.21-1.39-3.97-3.32-5.28-5.8c-1.31-2.48-1.96-5.25-1.96-8.31c0-3.07,0.66-5.84,1.96-8.31
			c1.31-2.47,3.07-4.41,5.28-5.8c2.21-1.39,4.62-2.09,7.24-2.09c2.37,0,4.5,0.52,6.38,1.56c1.88,1.04,3.29,2.34,4.23,3.9h0.24
			l-0.24-4.17V8.42h5.15v43.93h-4.91v-4.54h-0.24c-0.94,1.6-2.35,2.92-4.23,3.96c-1.88,1.04-4.01,1.56-6.38,1.56
			C747.24,53.33,744.82,52.64,742.61,51.25z M755.65,47.23c1.53-0.92,2.76-2.26,3.68-4.02c0.92-1.76,1.38-3.78,1.38-6.08
			c0-2.33-0.46-4.37-1.38-6.1c-0.92-1.74-2.15-3.07-3.68-3.99c-1.53-0.92-3.2-1.38-5-1.38s-3.47,0.47-5,1.41
			c-1.53,0.94-2.76,2.28-3.68,4.02c-0.92,1.74-1.38,3.75-1.38,6.04c0,2.29,0.46,4.31,1.38,6.04c0.92,1.74,2.15,3.08,3.68,4.02
			c1.53,0.94,3.2,1.41,5,1.41S754.12,48.15,755.65,47.23z"/>
		<path class="st0" d="M778.05,51.25c-2.31-1.39-4.12-3.31-5.43-5.77c-1.31-2.46-1.96-5.24-1.96-8.35c0-2.94,0.61-5.65,1.84-8.13
			c1.23-2.47,2.98-4.44,5.25-5.89c2.27-1.45,4.88-2.18,7.82-2.18c2.95,0,5.53,0.66,7.76,1.99c2.23,1.33,3.93,3.2,5.12,5.62
			c1.19,2.41,1.78,5.2,1.78,8.35c0,0.57-0.04,0.98-0.12,1.23h-24.18c0.08,2.29,0.63,4.22,1.66,5.8c1.02,1.58,2.3,2.75,3.84,3.53
			c1.53,0.78,3.12,1.17,4.75,1.17c3.85,0,6.81-1.88,8.9-5.65l4.6,2.21c-1.31,2.45-3.12,4.43-5.43,5.92
			c-2.31,1.49-5.08,2.24-8.31,2.24C782.99,53.33,780.36,52.64,778.05,51.25z M794.71,33.76c-0.08-1.22-0.43-2.45-1.04-3.68
			c-0.61-1.23-1.61-2.27-2.98-3.13c-1.37-0.86-3.12-1.29-5.25-1.29c-2.29,0-4.28,0.74-5.95,2.21c-1.68,1.47-2.74,3.44-3.19,5.89
			H794.71z"/>
		<path class="st0" d="M805.51,21.92h4.97v4.54h0.25c0.86-1.56,2.21-2.86,4.05-3.93c1.84-1.06,3.8-1.59,5.89-1.59
			c3.72,0,6.55,1.08,8.5,3.25c1.94,2.17,2.92,5.13,2.92,8.9v19.27h-5.15V33.88c0-5.48-2.56-8.22-7.67-8.22
			c-1.64,0-3.11,0.47-4.42,1.41c-1.31,0.94-2.32,2.17-3.04,3.68c-0.72,1.51-1.07,3.11-1.07,4.79v16.81h-5.22V21.92z"/>
		<path class="st0" d="M845.67,52.71c-1.04-0.42-1.93-0.98-2.67-1.69c-0.82-0.79-1.42-1.72-1.81-2.78
			c-0.39-1.06-0.59-2.32-0.59-3.78V26.64h-5.4v-4.73h5.4v-9.08h5.15v9.08h7.48v4.73h-7.48v16.57c0,1.76,0.35,3.06,1.04,3.89
			c0.7,0.92,1.76,1.38,3.19,1.38c1.27,0,2.37-0.29,3.31-0.86v5.03c-0.66,0.24-1.28,0.42-1.87,0.52c-0.59,0.1-1.38,0.15-2.36,0.15
			C847.84,53.33,846.71,53.12,845.67,52.71z"/>
		<path class="st0" d="M881.16,50.33c-3.48-2-6.21-4.76-8.19-8.28c-1.98-3.52-2.98-7.4-2.98-11.66s0.99-8.14,2.98-11.66
			c1.98-3.52,4.72-6.28,8.19-8.28c3.47-2,7.32-3.01,11.53-3.01c3.31,0,6.33,0.62,9.05,1.87s5.06,3.02,7.02,5.31l-3.68,3.62
			c-1.64-2.01-3.47-3.48-5.49-4.42c-2.02-0.94-4.33-1.41-6.9-1.41c-3.15,0-6.05,0.75-8.71,2.24c-2.66,1.5-4.78,3.6-6.35,6.32
			c-1.58,2.72-2.36,5.86-2.36,9.42c0,3.56,0.79,6.7,2.36,9.42c1.57,2.72,3.69,4.83,6.35,6.32c2.66,1.5,5.56,2.24,8.71,2.24
			c5.36,0,9.9-2.19,13.62-6.56l3.74,3.68c-2.01,2.41-4.5,4.33-7.49,5.74c-2.99,1.41-6.28,2.11-9.88,2.11
			C888.48,53.33,884.64,52.33,881.16,50.33z"/>
		<path class="st0" d="M915.15,8.42h5.21v43.93h-5.21V8.42z"/>
		<path class="st0" d="M930.03,50.08c-1.94-2.17-2.91-5.17-2.91-9.02V21.92h5.21V40.2c0,5.6,2.51,8.41,7.55,8.41
			c1.68,0,3.18-0.47,4.51-1.41c1.33-0.94,2.35-2.17,3.07-3.68c0.72-1.51,1.07-3.11,1.07-4.79V21.92h5.15v30.43h-4.91v-4.54h-0.25
			c-0.9,1.56-2.26,2.86-4.08,3.93c-1.82,1.06-3.77,1.59-5.86,1.59C934.83,53.33,931.98,52.25,930.03,50.08z"/>
		<path class="st0" d="M970.16,51.77c-1.86-1.04-3.26-2.36-4.2-3.96h-0.24v4.54h-4.97V8.42h5.21v13.8l-0.24,4.17h0.24
			c0.98-1.55,2.39-2.85,4.23-3.9c1.84-1.04,3.97-1.56,6.38-1.56c2.62,0,5.03,0.7,7.24,2.12c2.21,1.41,3.97,3.34,5.28,5.8
			c1.31,2.46,1.96,5.21,1.96,8.28c0,3.07-0.66,5.83-1.96,8.28c-1.31,2.46-3.07,4.39-5.28,5.8c-2.21,1.41-4.62,2.11-7.24,2.11
			C974.16,53.33,972.02,52.81,970.16,51.77z M980.78,47.2c1.53-0.94,2.76-2.28,3.68-4.02c0.92-1.74,1.38-3.75,1.38-6.04
			c0-2.29-0.46-4.3-1.38-6.04c-0.92-1.74-2.15-3.08-3.68-4.02c-1.53-0.94-3.2-1.41-5-1.41s-3.47,0.46-5,1.38
			c-1.53,0.92-2.76,2.25-3.68,3.99c-0.92,1.74-1.38,3.77-1.38,6.1c0,2.29,0.46,4.32,1.38,6.08c0.92,1.76,2.15,3.1,3.68,4.02
			c1.53,0.92,3.2,1.38,5,1.38S979.24,48.14,980.78,47.2z"/>
		<path class="st0" d="M998.54,50.88c-2.25-1.64-3.83-3.66-4.72-6.08l4.6-2.02c0.82,1.92,1.97,3.39,3.47,4.42
			c1.49,1.02,3.12,1.53,4.88,1.53c1.96,0,3.59-0.43,4.88-1.29c1.29-0.86,1.93-1.9,1.93-3.13c0-1.19-0.48-2.17-1.44-2.94
			c-0.96-0.78-2.61-1.45-4.94-2.03l-4.17-1.04c-2.29-0.53-4.24-1.49-5.86-2.88c-1.62-1.39-2.42-3.23-2.42-5.52
			c0-1.88,0.54-3.5,1.63-4.85c1.08-1.35,2.53-2.37,4.33-3.07c1.8-0.7,3.76-1.04,5.89-1.04c2.62,0,5,0.6,7.15,1.81
			c2.15,1.21,3.67,2.91,4.57,5.12l-4.6,1.96c-0.66-1.47-1.65-2.56-2.98-3.25c-1.33-0.69-2.81-1.04-4.45-1.04
			c-1.59,0-3.04,0.39-4.33,1.17c-1.29,0.78-1.93,1.78-1.93,3.01c0,1.07,0.42,1.9,1.26,2.52c0.84,0.61,2.18,1.17,4.02,1.66l4.54,1.1
			c3.03,0.78,5.29,1.93,6.78,3.47s2.24,3.37,2.24,5.49c0,1.76-0.51,3.35-1.53,4.79c-1.02,1.43-2.46,2.56-4.3,3.38
			c-1.84,0.82-3.93,1.22-6.26,1.22C1003.53,53.33,1000.79,52.52,998.54,50.88z"/>
	</g>
	<g>
		<g>
			<path class="st1" d="M28.84,31.05L48.5,19.7c4.63-2.67,6.21-8.59,3.54-13.22c-2.67-4.63-8.59-6.22-13.22-3.54L4.84,22.56
				L28.84,31.05z"/>
		</g>
		<g>
			<path class="st2" d="M43.66,60.24c3.34,0,6.6-1.74,8.39-4.84c2.67-4.63,1.09-10.55-3.54-13.22L14.52,22.56
				C9.89,19.88,3.97,21.47,1.3,26.1c-2.67,4.63-1.09,10.55,3.54,13.22l33.99,19.62C40.35,59.82,42.02,60.24,43.66,60.24z"/>
		</g>
		<g>
			<path class="st3" d="M77.46,60.24c1.64,0,3.31-0.42,4.83-1.3l33.99-19.62l-23.69-8.67L72.62,42.18
				c-4.63,2.67-6.21,8.59-3.54,13.22C70.87,58.5,74.12,60.24,77.46,60.24z"/>
		</g>
		<g>
			<path class="st4" d="M111.43,40.62c3.34,0,6.6-1.74,8.39-4.84c2.67-4.63,1.09-10.55-3.54-13.22L82.29,2.94
				c-4.63-2.67-10.55-1.09-13.22,3.54c-2.67,4.63-1.09,10.55,3.54,13.22l33.99,19.62C108.13,40.2,109.79,40.62,111.43,40.62z"/>
		</g>
	</g>
</g>
<g>
	<g>
		<g>
			<path class="st0" d="M157.64,115.07c-1.72-1.02-3.05-2.44-4-4.26c-0.95-1.82-1.42-3.92-1.42-6.3v-19.4h3.66v19.57
				c0,2.5,0.66,4.52,1.98,6.09c1.32,1.56,3.21,2.34,5.68,2.34c2.47,0,4.37-0.78,5.7-2.34c1.33-1.56,2-3.59,2-6.09V85.11h3.66v19.4
				c0,2.38-0.45,4.49-1.35,6.32c-0.9,1.83-2.21,3.25-3.94,4.26c-1.72,1-3.74,1.51-6.06,1.51
				C161.33,116.59,159.36,116.08,157.64,115.07z"/>
			<path class="st0" d="M180.26,94.57h3.48v3.18h0.17c0.6-1.09,1.55-2.01,2.84-2.75c1.29-0.75,2.67-1.12,4.13-1.12
				c2.61,0,4.59,0.76,5.96,2.28c1.36,1.52,2.04,3.6,2.04,6.24v13.5h-3.61v-12.95c0-3.84-1.79-5.76-5.38-5.76
				c-1.15,0-2.18,0.33-3.1,0.99c-0.92,0.66-1.63,1.52-2.13,2.58c-0.5,1.06-0.75,2.18-0.75,3.36v11.78h-3.66V94.57z"/>
			<path class="st0" d="M204.39,89.24c-0.52-0.52-0.77-1.13-0.77-1.85s0.26-1.33,0.77-1.85c0.52-0.52,1.13-0.77,1.85-0.77
				c0.72,0,1.33,0.26,1.85,0.77c0.52,0.52,0.77,1.13,0.77,1.85s-0.25,1.33-0.75,1.85c-0.5,0.52-1.13,0.77-1.87,0.77
				C205.52,90.01,204.91,89.76,204.39,89.24z M204.44,94.57h3.61v21.33h-3.61V94.57z"/>
			<path class="st0" d="M211.32,94.57h3.96l6.54,17.03h0.09l6.62-17.03h3.87l-8.73,21.33h-3.7L211.32,94.57z"/>
			<path class="st0" d="M238.65,115.13c-1.62-0.97-2.89-2.32-3.81-4.04c-0.92-1.72-1.38-3.67-1.38-5.85c0-2.06,0.43-3.96,1.29-5.7
				c0.86-1.73,2.09-3.11,3.68-4.13c1.59-1.02,3.42-1.53,5.48-1.53s3.88,0.47,5.44,1.4c1.56,0.93,2.76,2.24,3.59,3.94
				c0.83,1.69,1.25,3.64,1.25,5.85c0,0.4-0.03,0.69-0.09,0.86h-16.95c0.06,1.61,0.44,2.96,1.16,4.06c0.72,1.1,1.61,1.93,2.69,2.47
				s2.19,0.82,3.33,0.82c2.69,0,4.77-1.32,6.24-3.96l3.23,1.55c-0.92,1.72-2.19,3.1-3.81,4.15c-1.62,1.05-3.56,1.57-5.83,1.57
				C242.11,116.59,240.27,116.11,238.65,115.13z M250.33,102.87c-0.06-0.86-0.3-1.72-0.73-2.58s-1.13-1.59-2.09-2.19
				c-0.96-0.6-2.19-0.9-3.68-0.9c-1.61,0-3,0.52-4.17,1.55c-1.18,1.03-1.92,2.41-2.24,4.13H250.33z"/>
			<path class="st0" d="M258.32,94.57h3.48v3.48h0.17c0.4-1.18,1.23-2.17,2.47-2.97s2.49-1.2,3.72-1.2c0.89,0,1.72,0.14,2.49,0.43
				v3.91c-0.77-0.43-1.78-0.65-3.01-0.65c-1,0-1.94,0.29-2.82,0.88c-0.88,0.59-1.57,1.37-2.09,2.35s-0.77,2.04-0.77,3.19v11.9h-3.66
				V94.57z"/>
			<path class="st0" d="M274.97,114.87c-1.58-1.15-2.68-2.57-3.31-4.26l3.23-1.42c0.57,1.35,1.38,2.38,2.43,3.1
				c1.05,0.72,2.19,1.08,3.42,1.08c1.38,0,2.52-0.3,3.42-0.9c0.9-0.6,1.35-1.33,1.35-2.19c0-0.83-0.34-1.52-1.01-2.06
				c-0.67-0.54-1.83-1.02-3.46-1.42l-2.92-0.73c-1.61-0.37-2.98-1.05-4.11-2.02c-1.13-0.97-1.7-2.26-1.7-3.87
				c0-1.32,0.38-2.45,1.14-3.4c0.76-0.95,1.77-1.66,3.03-2.15s2.64-0.73,4.13-0.73c1.83,0,3.51,0.42,5.01,1.27s2.57,2.04,3.2,3.59
				l-3.23,1.38c-0.46-1.03-1.15-1.79-2.09-2.28c-0.93-0.49-1.97-0.73-3.12-0.73c-1.12,0-2.13,0.27-3.03,0.82s-1.35,1.25-1.35,2.11
				c0,0.75,0.29,1.33,0.88,1.76c0.59,0.43,1.53,0.82,2.82,1.16l3.18,0.77c2.12,0.54,3.71,1.36,4.75,2.43
				c1.05,1.08,1.57,2.36,1.57,3.85c0,1.23-0.36,2.35-1.08,3.36c-0.72,1-1.72,1.79-3.01,2.37c-1.29,0.57-2.75,0.86-4.39,0.86
				C278.47,116.59,276.55,116.02,274.97,114.87z"/>
			<path class="st0" d="M293.21,89.24c-0.52-0.52-0.77-1.13-0.77-1.85s0.26-1.33,0.77-1.85c0.52-0.52,1.13-0.77,1.85-0.77
				c0.72,0,1.33,0.26,1.85,0.77c0.52,0.52,0.77,1.13,0.77,1.85s-0.25,1.33-0.75,1.85c-0.5,0.52-1.13,0.77-1.87,0.77
				C294.34,90.01,293.72,89.76,293.21,89.24z M293.25,94.57h3.61v21.33h-3.61V94.57z"/>
			<path class="st0" d="M308.15,116.16c-0.73-0.29-1.35-0.69-1.87-1.18c-0.57-0.56-1-1.21-1.27-1.95c-0.27-0.75-0.41-1.63-0.41-2.65
				V97.89h-3.79v-3.31h3.79v-6.37h3.61v6.37h5.25v3.31h-5.25v11.62c0,1.23,0.24,2.14,0.73,2.73c0.49,0.65,1.23,0.97,2.24,0.97
				c0.89,0,1.66-0.2,2.32-0.6v3.53c-0.46,0.17-0.9,0.29-1.31,0.37c-0.42,0.07-0.97,0.11-1.66,0.11
				C309.68,116.59,308.88,116.45,308.15,116.16z"/>
			<path class="st0" d="M324.43,114.53l-8.86-19.96h3.96l6.62,15.7h0.09l6.41-15.7h3.96l-13.33,30.62h-3.74L324.43,114.53z"/>
			<path class="st0" d="M353.63,115.11c-1.66-0.99-2.96-2.35-3.89-4.09c-0.93-1.73-1.4-3.66-1.4-5.78s0.47-4.05,1.4-5.79
				c0.93-1.73,2.23-3.1,3.89-4.09c1.66-0.99,3.54-1.48,5.63-1.48c2.09,0,3.98,0.49,5.66,1.48c1.68,0.99,2.98,2.35,3.91,4.09
				c0.93,1.74,1.4,3.66,1.4,5.79s-0.47,4.05-1.4,5.78c-0.93,1.74-2.24,3.1-3.91,4.09c-1.68,0.99-3.56,1.48-5.66,1.48
				C357.17,116.59,355.29,116.1,353.63,115.11z M362.88,112.29c1.12-0.66,2.01-1.6,2.69-2.82c0.67-1.22,1.01-2.63,1.01-4.24
				s-0.34-3.02-1.01-4.24c-0.67-1.22-1.57-2.16-2.69-2.82c-1.12-0.66-2.32-0.99-3.61-0.99c-1.26,0-2.45,0.33-3.57,0.99
				c-1.12,0.66-2.01,1.6-2.69,2.82c-0.67,1.22-1.01,2.63-1.01,4.24s0.34,3.02,1.01,4.24c0.67,1.22,1.57,2.16,2.69,2.82
				c1.12,0.66,2.31,0.99,3.57,0.99C360.56,113.28,361.76,112.95,362.88,112.29z"/>
			<path class="st0" d="M376.21,97.89h-4v-3.31h4v-2.97c0-1.38,0.31-2.58,0.92-3.61c0.62-1.03,1.45-1.83,2.49-2.39
				c1.05-0.56,2.21-0.84,3.5-0.84c0.72,0,1.3,0.04,1.74,0.13c0.44,0.09,0.91,0.21,1.4,0.39v3.57c-0.92-0.46-1.92-0.69-3.01-0.69
				c-0.95,0-1.75,0.34-2.41,1.01c-0.66,0.67-0.99,1.61-0.99,2.82v2.58h5.51v3.31h-5.51v18.02h-3.66V97.89z"/>
			<path class="st0" d="M395.95,85.11H400l5.59,22.62l0.52,2.11h0.17l0.65-2.11l6.88-22.62h3.78l6.58,22.62l0.65,2.11h0.17
				l6.06-24.73h4.04l-8.3,30.79h-3.79l-6.54-22.28l-0.69-2.41h-0.17l-0.73,2.41l-6.8,22.28h-3.79L395.95,85.11z"/>
			<path class="st0" d="M437.93,89.24c-0.52-0.52-0.77-1.13-0.77-1.85s0.26-1.33,0.77-1.85c0.52-0.52,1.13-0.77,1.85-0.77
				c0.72,0,1.33,0.26,1.85,0.77c0.52,0.52,0.77,1.13,0.77,1.85s-0.25,1.33-0.75,1.85c-0.5,0.52-1.13,0.77-1.87,0.77
				C439.06,90.01,438.45,89.76,437.93,89.24z M437.97,94.57h3.61v21.33h-3.61V94.57z"/>
			<path class="st0" d="M449.03,114.87c-1.58-1.15-2.68-2.57-3.31-4.26l3.23-1.42c0.57,1.35,1.38,2.38,2.43,3.1
				c1.05,0.72,2.19,1.08,3.42,1.08c1.38,0,2.52-0.3,3.42-0.9c0.9-0.6,1.35-1.33,1.35-2.19c0-0.83-0.34-1.52-1.01-2.06
				c-0.67-0.54-1.83-1.02-3.46-1.42l-2.92-0.73c-1.61-0.37-2.98-1.05-4.11-2.02c-1.13-0.97-1.7-2.26-1.7-3.87
				c0-1.32,0.38-2.45,1.14-3.4c0.76-0.95,1.77-1.66,3.03-2.15s2.64-0.73,4.13-0.73c1.83,0,3.51,0.42,5.01,1.27s2.57,2.04,3.2,3.59
				l-3.23,1.38c-0.46-1.03-1.15-1.79-2.09-2.28c-0.93-0.49-1.97-0.73-3.12-0.73c-1.12,0-2.13,0.27-3.03,0.82s-1.35,1.25-1.35,2.11
				c0,0.75,0.29,1.33,0.88,1.76c0.59,0.43,1.53,0.82,2.82,1.16l3.18,0.77c2.12,0.54,3.71,1.36,4.75,2.43
				c1.05,1.08,1.57,2.36,1.57,3.85c0,1.23-0.36,2.35-1.08,3.36c-0.72,1-1.72,1.79-3.01,2.37c-1.29,0.57-2.75,0.86-4.39,0.86
				C452.52,116.59,450.6,116.02,449.03,114.87z"/>
			<path class="st0" d="M471.48,115.11c-1.66-0.99-2.96-2.35-3.89-4.09c-0.93-1.73-1.4-3.66-1.4-5.78c0-2.15,0.47-4.09,1.4-5.81
				c0.93-1.72,2.23-3.08,3.89-4.06c1.66-0.99,3.53-1.48,5.59-1.48c2.32,0,4.27,0.56,5.85,1.68c1.58,1.12,2.72,2.57,3.44,4.34
				l-3.31,1.42c-1.15-2.75-3.21-4.13-6.19-4.13c-1.2,0-2.34,0.34-3.42,1.01s-1.94,1.62-2.6,2.84c-0.66,1.22-0.99,2.62-0.99,4.19
				c0,1.55,0.33,2.94,0.99,4.17c0.66,1.23,1.53,2.19,2.6,2.86s2.21,1.01,3.42,1.01c1.52,0,2.82-0.36,3.91-1.08
				c1.09-0.72,1.91-1.73,2.45-3.05l3.23,1.38c-0.72,1.78-1.88,3.23-3.48,4.37c-1.61,1.13-3.57,1.7-5.89,1.7
				C475,116.59,473.14,116.1,471.48,115.11z"/>
			<path class="st0" d="M494.19,115.11c-1.66-0.99-2.96-2.35-3.89-4.09c-0.93-1.73-1.4-3.66-1.4-5.78s0.47-4.05,1.4-5.79
				c0.93-1.73,2.23-3.1,3.89-4.09c1.66-0.99,3.54-1.48,5.63-1.48c2.09,0,3.98,0.49,5.66,1.48c1.68,0.99,2.98,2.35,3.91,4.09
				c0.93,1.74,1.4,3.66,1.4,5.79s-0.47,4.05-1.4,5.78c-0.93,1.74-2.24,3.1-3.91,4.09c-1.68,0.99-3.56,1.48-5.66,1.48
				C497.73,116.59,495.85,116.1,494.19,115.11z M503.43,112.29c1.12-0.66,2.01-1.6,2.69-2.82c0.67-1.22,1.01-2.63,1.01-4.24
				s-0.34-3.02-1.01-4.24c-0.67-1.22-1.57-2.16-2.69-2.82c-1.12-0.66-2.32-0.99-3.61-0.99c-1.26,0-2.45,0.33-3.57,0.99
				c-1.12,0.66-2.01,1.6-2.69,2.82c-0.67,1.22-1.01,2.63-1.01,4.24s0.34,3.02,1.01,4.24c0.67,1.22,1.57,2.16,2.69,2.82
				c1.12,0.66,2.31,0.99,3.57,0.99C501.11,113.28,502.31,112.95,503.43,112.29z"/>
			<path class="st0" d="M514.49,94.57h3.48v3.18h0.17c0.6-1.09,1.55-2.01,2.84-2.75c1.29-0.75,2.67-1.12,4.13-1.12
				c2.61,0,4.59,0.76,5.96,2.28c1.36,1.52,2.04,3.6,2.04,6.24v13.5h-3.61v-12.95c0-3.84-1.79-5.76-5.38-5.76
				c-1.15,0-2.18,0.33-3.1,0.99c-0.92,0.66-1.63,1.52-2.13,2.58c-0.5,1.06-0.75,2.18-0.75,3.36v11.78h-3.65V94.57z"/>
			<path class="st0" d="M539.86,114.87c-1.58-1.15-2.68-2.57-3.31-4.26l3.23-1.42c0.57,1.35,1.38,2.38,2.43,3.1
				c1.05,0.72,2.19,1.08,3.42,1.08c1.38,0,2.52-0.3,3.42-0.9c0.9-0.6,1.35-1.33,1.35-2.19c0-0.83-0.34-1.52-1.01-2.06
				s-1.83-1.02-3.46-1.42l-2.92-0.73c-1.61-0.37-2.97-1.05-4.11-2.02s-1.7-2.26-1.7-3.87c0-1.32,0.38-2.45,1.14-3.4
				c0.76-0.95,1.77-1.66,3.03-2.15c1.26-0.49,2.64-0.73,4.13-0.73c1.83,0,3.5,0.42,5.01,1.27c1.5,0.85,2.57,2.04,3.2,3.59
				l-3.23,1.38c-0.46-1.03-1.15-1.79-2.09-2.28s-1.97-0.73-3.12-0.73c-1.12,0-2.13,0.27-3.03,0.82c-0.9,0.54-1.36,1.25-1.36,2.11
				c0,0.75,0.29,1.33,0.88,1.76c0.59,0.43,1.53,0.82,2.82,1.16l3.18,0.77c2.12,0.54,3.71,1.36,4.75,2.43s1.57,2.36,1.57,3.85
				c0,1.23-0.36,2.35-1.08,3.36c-0.72,1-1.72,1.79-3.01,2.37s-2.75,0.86-4.39,0.86C543.36,116.59,541.44,116.02,539.86,114.87z"/>
			<path class="st0" d="M558.1,89.24c-0.52-0.52-0.77-1.13-0.77-1.85s0.26-1.33,0.77-1.85c0.52-0.52,1.13-0.77,1.85-0.77
				c0.72,0,1.33,0.26,1.85,0.77c0.52,0.52,0.77,1.13,0.77,1.85s-0.25,1.33-0.75,1.85c-0.5,0.52-1.12,0.77-1.87,0.77
				C559.23,90.01,558.61,89.76,558.1,89.24z M558.14,94.57h3.61v21.33h-3.61V94.57z"/>
			<path class="st0" d="M567.43,94.57h3.48v3.18h0.17c0.6-1.09,1.55-2.01,2.84-2.75c1.29-0.75,2.67-1.12,4.13-1.12
				c2.61,0,4.59,0.76,5.96,2.28c1.36,1.52,2.04,3.6,2.04,6.24v13.5h-3.61v-12.95c0-3.84-1.79-5.76-5.38-5.76
				c-1.15,0-2.18,0.33-3.1,0.99c-0.92,0.66-1.63,1.52-2.13,2.58c-0.5,1.06-0.75,2.18-0.75,3.36v11.78h-3.66V94.57z"/>
			<path class="st0" d="M601.19,101.07h13.68v3.01h-13.68V101.07z"/>
			<path class="st0" d="M630.87,85.11h5.29l9.85,25.25h0.17l9.81-25.25h5.29v30.79h-3.66V96.34l0.17-5.85h-0.17l-10.02,25.42h-3.05
				l-10.02-25.42h-0.17l0.17,5.85v19.57h-3.66V85.11z"/>
			<path class="st0" d="M669.42,115.67c-1.25-0.62-2.22-1.48-2.92-2.58c-0.7-1.1-1.05-2.34-1.05-3.72c0-2.26,0.85-4.03,2.56-5.29
				c1.71-1.26,3.89-1.89,6.56-1.89c1.32,0,2.51,0.14,3.57,0.43c1.06,0.29,1.91,0.6,2.54,0.95v-1.12c0-1.03-0.27-1.96-0.8-2.77
				c-0.53-0.82-1.24-1.45-2.13-1.89s-1.85-0.67-2.88-0.67c-2.44,0-4.3,0.99-5.59,2.97l-3.05-2.02c0.89-1.32,2.06-2.34,3.53-3.08
				c1.46-0.73,3.11-1.1,4.95-1.1c2.92,0,5.23,0.79,6.92,2.37c1.69,1.58,2.54,3.7,2.54,6.37v13.29h-3.48v-3.14h-0.17
				c-0.69,1.09-1.62,2-2.8,2.73c-1.18,0.73-2.54,1.1-4.09,1.1C672.07,116.59,670.67,116.29,669.42,115.67z M677.19,112.47
				c1.03-0.6,1.87-1.42,2.52-2.45s0.97-2.15,0.97-3.35c-1.61-1.03-3.46-1.55-5.55-1.55c-1.81,0-3.25,0.41-4.32,1.23
				c-1.08,0.82-1.61,1.86-1.61,3.12c0,1.15,0.47,2.09,1.42,2.82c0.95,0.73,2.05,1.1,3.31,1.1
				C675.06,113.37,676.15,113.07,677.19,112.47z"/>
			<path class="st0" d="M692.8,115.13c-1.55-0.97-2.78-2.33-3.7-4.06c-0.92-1.73-1.38-3.68-1.38-5.83s0.46-4.09,1.38-5.83
				c0.92-1.73,2.15-3.09,3.7-4.06c1.55-0.97,3.24-1.46,5.08-1.46c1.66,0,3.15,0.37,4.47,1.1c1.32,0.73,2.31,1.64,2.97,2.73h0.17
				l-0.17-2.92v-9.68h3.61v30.79h-3.44v-3.18h-0.17c-0.66,1.12-1.65,2.04-2.97,2.77c-1.32,0.73-2.81,1.1-4.47,1.1
				C696.04,116.59,694.35,116.11,692.8,115.13z M701.94,112.32c1.08-0.65,1.94-1.58,2.58-2.82c0.64-1.23,0.97-2.65,0.97-4.26
				c0-1.63-0.32-3.06-0.97-4.28c-0.65-1.22-1.51-2.15-2.58-2.8s-2.24-0.97-3.5-0.97c-1.26,0-2.43,0.33-3.51,0.99
				c-1.08,0.66-1.94,1.6-2.58,2.82c-0.65,1.22-0.97,2.63-0.97,4.24s0.32,3.02,0.97,4.24c0.64,1.22,1.5,2.16,2.58,2.82
				c1.08,0.66,2.24,0.99,3.51,0.99C699.69,113.28,700.86,112.96,701.94,112.32z"/>
			<path class="st0" d="M714.6,89.24c-0.52-0.52-0.77-1.13-0.77-1.85s0.26-1.33,0.77-1.85c0.52-0.52,1.13-0.77,1.85-0.77
				c0.72,0,1.33,0.26,1.85,0.77c0.52,0.52,0.77,1.13,0.77,1.85s-0.25,1.33-0.75,1.85c-0.5,0.52-1.12,0.77-1.87,0.77
				C715.74,90.01,715.12,89.76,714.6,89.24z M714.65,94.57h3.61v21.33h-3.61V94.57z"/>
			<path class="st0" d="M725.7,114.87c-1.58-1.15-2.68-2.57-3.31-4.26l3.23-1.42c0.57,1.35,1.38,2.38,2.43,3.1
				c1.05,0.72,2.19,1.08,3.42,1.08c1.38,0,2.52-0.3,3.42-0.9c0.9-0.6,1.35-1.33,1.35-2.19c0-0.83-0.34-1.52-1.01-2.06
				s-1.83-1.02-3.46-1.42l-2.92-0.73c-1.61-0.37-2.97-1.05-4.11-2.02s-1.7-2.26-1.7-3.87c0-1.32,0.38-2.45,1.14-3.4
				c0.76-0.95,1.77-1.66,3.03-2.15c1.26-0.49,2.64-0.73,4.13-0.73c1.83,0,3.5,0.42,5.01,1.27c1.5,0.85,2.57,2.04,3.2,3.59
				l-3.23,1.38c-0.46-1.03-1.15-1.79-2.09-2.28s-1.97-0.73-3.12-0.73c-1.12,0-2.13,0.27-3.03,0.82c-0.9,0.54-1.36,1.25-1.36,2.11
				c0,0.75,0.29,1.33,0.88,1.76c0.59,0.43,1.53,0.82,2.82,1.16l3.18,0.77c2.12,0.54,3.71,1.36,4.75,2.43s1.57,2.36,1.57,3.85
				c0,1.23-0.36,2.35-1.08,3.36c-0.72,1-1.72,1.79-3.01,2.37s-2.75,0.86-4.39,0.86C729.2,116.59,727.28,116.02,725.7,114.87z"/>
			<path class="st0" d="M748.15,115.11c-1.66-0.99-2.96-2.35-3.89-4.09c-0.93-1.73-1.4-3.66-1.4-5.78s0.47-4.05,1.4-5.79
				c0.93-1.73,2.23-3.1,3.89-4.09s3.54-1.48,5.63-1.48c2.09,0,3.98,0.49,5.66,1.48c1.68,0.99,2.98,2.35,3.91,4.09
				c0.93,1.74,1.4,3.66,1.4,5.79s-0.47,4.05-1.4,5.78c-0.93,1.74-2.24,3.1-3.91,4.09c-1.68,0.99-3.56,1.48-5.66,1.48
				C751.69,116.59,749.81,116.1,748.15,115.11z M757.4,112.29c1.12-0.66,2.01-1.6,2.69-2.82s1.01-2.63,1.01-4.24
				s-0.34-3.02-1.01-4.24s-1.57-2.16-2.69-2.82c-1.12-0.66-2.32-0.99-3.61-0.99c-1.26,0-2.45,0.33-3.57,0.99
				c-1.12,0.66-2.01,1.6-2.69,2.82c-0.67,1.22-1.01,2.63-1.01,4.24s0.34,3.02,1.01,4.24c0.67,1.22,1.57,2.16,2.69,2.82
				c1.12,0.66,2.31,0.99,3.57,0.99C755.08,113.28,756.28,112.95,757.4,112.29z"/>
			<path class="st0" d="M768.45,94.57h3.48v3.18h0.17c0.6-1.09,1.55-2.01,2.84-2.75c1.29-0.75,2.67-1.12,4.13-1.12
				c2.61,0,4.59,0.76,5.96,2.28c1.36,1.52,2.04,3.6,2.04,6.24v13.5h-3.61v-12.95c0-3.84-1.79-5.76-5.38-5.76
				c-1.15,0-2.18,0.33-3.1,0.99c-0.92,0.66-1.63,1.52-2.13,2.58c-0.5,1.06-0.75,2.18-0.75,3.36v11.78h-3.66V94.57z"/>
		</g>
	</g>
</g>
<g>
</g>
<g>
</g>
<g>
</g>
<g>
</g>
<g>
</g>
<g>
</g>
<g>
</g>
<g>
</g>
<g>
</g>
<g>
</g>
<g>
</g>
<g>
</g>
<g>
</g>
<g>
</g>
<g>
</g>
</svg>
