<svg id="svg" version="1.1" xmlns="http://www.w3.org/2000/svg" xmlns:xlink="http://www.w3.org/1999/xlink" width="400" height="225" viewBox="0, 0, 400,225"><g id="svgg"><path id="path0" d="M184.693 13.511 C 183.455 13.617,182.138 13.747,181.767 13.800 C 181.396 13.853,180.129 14.024,178.953 14.179 C 177.777 14.335,176.719 14.551,176.601 14.660 C 176.483 14.768,176.148 14.856,175.855 14.856 C 175.165 14.856,171.303 15.725,170.803 15.993 C 170.592 16.106,170.010 16.264,169.509 16.344 C 169.008 16.424,168.599 16.578,168.599 16.686 C 168.599 16.794,168.320 16.883,167.980 16.884 C 167.639 16.885,167.071 17.036,166.716 17.221 C 166.361 17.406,165.956 17.561,165.816 17.565 C 165.675 17.570,165.155 17.769,164.660 18.008 C 164.164 18.247,163.582 18.446,163.365 18.450 C 163.149 18.455,162.971 18.546,162.971 18.654 C 162.971 18.762,162.566 18.916,162.071 18.995 C 161.576 19.074,161.171 19.234,161.171 19.351 C 161.171 19.468,160.816 19.630,160.383 19.711 C 159.949 19.792,159.595 19.941,159.595 20.041 C 159.595 20.141,159.291 20.290,158.920 20.371 C 158.548 20.453,158.244 20.605,158.244 20.709 C 158.244 20.813,157.940 20.965,157.569 21.047 C 157.198 21.128,156.894 21.280,156.894 21.384 C 156.894 21.488,156.590 21.640,156.218 21.722 C 155.847 21.804,155.543 21.953,155.543 22.053 C 155.543 22.154,155.272 22.304,154.942 22.387 C 154.611 22.470,154.091 22.734,153.786 22.974 C 153.481 23.214,153.102 23.410,152.943 23.410 C 152.784 23.410,152.621 23.499,152.579 23.607 C 152.538 23.715,151.998 24.070,151.379 24.396 C 150.151 25.044,149.416 25.481,149.240 25.669 C 149.178 25.735,148.229 26.394,147.130 27.132 C 146.032 27.871,144.918 28.701,144.654 28.978 C 144.391 29.254,144.086 29.482,143.976 29.484 C 143.867 29.486,143.542 29.741,143.255 30.051 C 142.969 30.360,142.640 30.613,142.525 30.613 C 142.410 30.613,141.915 30.993,141.424 31.458 C 140.932 31.922,139.997 32.757,139.346 33.315 C 137.622 34.788,134.158 38.348,132.245 40.611 C 131.750 41.196,131.018 42.048,130.619 42.504 C 130.219 42.959,129.890 43.412,129.887 43.511 C 129.884 43.610,129.629 43.925,129.319 44.212 C 129.010 44.499,128.756 44.794,128.756 44.867 C 128.756 45.024,127.993 46.159,127.124 47.293 C 126.784 47.737,126.505 48.213,126.505 48.350 C 126.505 48.487,126.379 48.680,126.224 48.779 C 126.069 48.878,125.691 49.440,125.385 50.028 C 125.078 50.616,124.755 51.097,124.668 51.097 C 124.581 51.097,124.439 51.325,124.352 51.604 C 124.265 51.882,124.130 52.161,124.053 52.223 C 123.976 52.285,123.627 52.893,123.279 53.573 C 122.930 54.254,122.404 55.217,122.109 55.712 C 121.814 56.207,121.568 56.777,121.563 56.979 C 121.558 57.180,121.401 57.471,121.216 57.625 C 121.030 57.779,120.878 58.138,120.878 58.422 C 120.878 58.706,120.802 58.972,120.709 59.013 C 120.476 59.117,119.799 60.532,119.623 61.283 C 119.544 61.624,119.371 61.902,119.240 61.902 C 119.109 61.902,119.069 61.969,119.150 62.050 C 119.232 62.132,119.208 62.309,119.097 62.444 C 118.986 62.579,118.861 62.943,118.818 63.253 C 118.775 63.562,118.675 63.866,118.597 63.928 C 118.391 64.090,117.276 67.699,117.276 68.203 C 117.276 68.437,117.184 68.686,117.071 68.755 C 116.958 68.825,116.794 69.312,116.708 69.838 C 116.621 70.364,116.472 70.895,116.376 71.019 C 116.280 71.142,116.127 71.797,116.036 72.473 C 115.945 73.149,115.787 73.858,115.684 74.048 C 115.436 74.508,115.049 76.973,114.746 80.023 C 114.610 81.384,114.401 82.563,114.282 82.643 C 113.982 82.843,113.985 95.110,114.285 95.490 C 114.787 96.126,114.828 99.231,114.348 100.285 C 114.102 100.826,113.900 101.478,113.900 101.732 C 113.900 101.987,113.799 102.195,113.675 102.195 C 113.281 102.195,113.388 106.175,113.786 106.328 C 114.018 106.416,114.272 106.165,114.600 105.523 C 114.862 105.009,115.825 103.803,116.739 102.843 C 117.705 101.829,118.402 100.903,118.402 100.633 C 118.402 100.378,118.503 100.169,118.627 100.169 C 118.751 100.169,118.852 99.606,118.852 98.917 C 118.852 98.229,118.765 97.720,118.659 97.785 C 118.451 97.914,118.177 95.284,118.177 93.157 L 118.177 91.840 134.384 91.840 L 150.591 91.840 150.591 93.979 L 150.591 96.117 152.535 96.117 L 154.479 96.117 154.367 93.979 L 154.255 91.840 172.007 91.840 L 189.758 91.840 189.758 93.979 L 189.758 96.117 191.671 96.117 L 193.585 96.117 193.585 93.979 L 193.585 91.840 211.255 91.840 L 228.925 91.840 228.925 93.979 L 228.925 96.117 230.838 96.117 L 232.752 96.117 232.752 93.979 L 232.752 91.840 248.299 91.840 L 263.846 91.840 263.690 93.697 C 263.603 94.719,263.444 95.725,263.336 95.933 C 263.069 96.450,263.088 97.859,263.365 98.030 C 263.489 98.107,263.590 98.370,263.590 98.614 C 263.590 99.203,264.236 100.169,264.629 100.169 C 264.801 100.169,264.941 100.371,264.941 100.619 C 264.941 101.173,264.783 101.184,266.953 100.484 C 268.967 99.834,269.212 99.444,268.317 98.307 C 268.070 97.992,267.867 97.624,267.867 97.488 C 267.867 97.353,267.709 97.243,267.516 97.243 C 267.096 97.243,267.292 94.100,267.730 93.818 C 268.086 93.589,268.079 80.102,267.723 79.663 C 267.582 79.489,267.394 78.486,267.304 77.434 C 267.215 76.382,267.063 75.419,266.967 75.295 C 266.871 75.172,266.720 74.437,266.632 73.664 C 266.544 72.890,266.395 72.305,266.300 72.364 C 266.206 72.422,266.070 71.909,265.999 71.222 C 265.929 70.536,265.776 69.855,265.660 69.709 C 265.544 69.563,265.380 69.038,265.295 68.542 C 265.122 67.543,264.390 65.143,263.886 63.928 C 263.334 62.595,262.966 61.617,262.383 59.932 C 262.244 59.530,262.053 59.201,261.960 59.201 C 261.866 59.201,261.790 59.055,261.790 58.877 C 261.790 58.699,261.435 57.863,261.003 57.020 C 260.570 56.177,260.216 55.360,260.215 55.205 C 260.214 55.051,260.113 54.924,259.989 54.924 C 259.865 54.924,259.764 54.779,259.764 54.602 C 259.764 54.426,259.637 54.145,259.482 53.979 C 259.328 53.814,258.948 53.175,258.638 52.560 C 258.329 51.946,257.949 51.307,257.794 51.142 C 257.639 50.976,257.513 50.695,257.513 50.519 C 257.513 50.342,257.434 50.197,257.337 50.197 C 257.240 50.197,257.039 49.918,256.891 49.578 C 256.742 49.237,256.417 48.655,256.169 48.284 C 255.920 47.912,255.598 47.380,255.453 47.102 C 255.308 46.823,255.104 46.595,255.000 46.595 C 254.897 46.595,254.811 46.452,254.811 46.276 C 254.811 46.101,254.736 45.924,254.643 45.883 C 254.550 45.841,254.198 45.402,253.860 44.907 C 253.523 44.412,252.991 43.733,252.679 43.398 C 252.366 43.062,252.110 42.706,252.110 42.606 C 252.110 42.505,251.654 41.948,251.097 41.366 C 250.540 40.785,250.084 40.256,250.084 40.192 C 250.084 39.954,244.337 34.026,242.654 32.527 C 241.249 31.276,239.569 29.938,239.403 29.938 C 239.327 29.938,238.967 29.634,238.604 29.263 C 238.241 28.891,237.840 28.588,237.712 28.588 C 237.584 28.588,237.479 28.497,237.479 28.386 C 237.479 28.275,236.963 27.853,236.333 27.449 C 235.702 27.044,235.065 26.603,234.916 26.469 C 234.611 26.193,234.534 26.144,231.739 24.461 C 230.625 23.791,229.257 23.001,228.701 22.707 C 228.144 22.413,227.637 22.110,227.575 22.034 C 227.513 21.958,227.214 21.818,226.910 21.723 C 226.606 21.628,226.219 21.411,226.050 21.242 C 225.880 21.073,225.546 20.934,225.308 20.934 C 225.069 20.934,224.873 20.833,224.873 20.709 C 224.873 20.585,224.763 20.484,224.628 20.484 C 224.494 20.484,223.712 20.173,222.891 19.793 C 222.070 19.413,221.117 19.046,220.773 18.977 C 220.428 18.908,220.146 18.763,220.146 18.655 C 220.146 18.547,220.020 18.457,219.865 18.457 C 219.710 18.456,219.321 18.318,219.000 18.151 C 218.679 17.983,218.046 17.777,217.593 17.692 C 217.140 17.607,216.770 17.450,216.770 17.344 C 216.770 17.237,216.263 17.080,215.644 16.995 C 215.025 16.910,214.519 16.761,214.519 16.665 C 214.519 16.569,214.109 16.424,213.609 16.344 C 213.108 16.264,212.526 16.103,212.314 15.987 C 212.103 15.870,211.474 15.674,210.917 15.551 C 210.360 15.428,209.398 15.215,208.779 15.077 C 205.200 14.279,201.946 13.757,200.991 13.828 C 200.570 13.859,200.163 13.791,200.088 13.677 C 199.905 13.399,187.550 13.266,184.693 13.511 M189.758 38.492 L 189.758 59.876 186.057 59.876 C 184.022 59.876,182.306 59.795,182.245 59.696 C 182.184 59.597,181.697 59.491,181.162 59.461 C 180.628 59.431,179.280 59.297,178.165 59.163 C 177.051 59.029,175.760 58.907,175.295 58.892 C 174.831 58.876,174.451 58.796,174.451 58.714 C 174.451 58.631,173.692 58.493,172.763 58.406 C 171.835 58.319,171.075 58.173,171.075 58.081 C 171.075 57.989,170.452 57.849,169.691 57.770 C 168.930 57.690,168.196 57.534,168.059 57.422 C 167.923 57.310,167.228 57.146,166.517 57.058 C 165.805 56.970,165.222 56.818,165.222 56.720 C 165.222 56.622,164.716 56.472,164.097 56.387 C 163.478 56.302,162.922 56.152,162.862 56.054 C 162.801 55.956,162.295 55.808,161.736 55.724 C 161.177 55.640,160.720 55.488,160.720 55.385 C 160.720 55.283,160.355 55.131,159.909 55.047 C 159.015 54.879,158.979 54.624,159.603 52.898 C 159.849 52.218,159.999 51.792,160.156 51.322 C 160.177 51.261,160.276 50.906,160.376 50.535 C 160.476 50.163,160.629 49.758,160.716 49.634 C 160.804 49.510,161.012 48.903,161.179 48.284 C 161.347 47.665,161.615 46.905,161.776 46.595 C 161.937 46.286,162.069 45.921,162.070 45.785 C 162.070 45.648,162.312 45.083,162.608 44.527 C 162.903 43.972,163.215 43.198,163.301 42.806 C 163.387 42.414,163.551 42.093,163.664 42.093 C 163.778 42.093,163.872 41.993,163.872 41.870 C 163.872 41.501,164.844 39.392,165.015 39.392 C 165.102 39.392,165.243 39.115,165.328 38.775 C 165.413 38.436,165.559 38.107,165.653 38.044 C 165.746 37.981,166.094 37.372,166.427 36.691 C 167.103 35.306,167.453 34.716,167.867 34.265 C 168.022 34.096,168.149 33.864,168.149 33.750 C 168.149 33.574,170.001 30.855,170.655 30.069 C 171.227 29.383,171.671 28.805,171.975 28.351 C 172.441 27.657,177.543 22.510,177.765 22.510 C 177.864 22.510,178.198 22.275,178.507 21.989 C 178.816 21.702,179.575 21.175,180.193 20.818 C 180.811 20.460,181.368 20.095,181.432 20.006 C 181.495 19.917,181.824 19.775,182.163 19.690 C 182.502 19.604,182.780 19.444,182.780 19.334 C 182.780 19.224,182.907 19.133,183.061 19.132 C 183.216 19.131,183.596 18.999,183.905 18.838 C 184.839 18.352,186.822 17.763,187.986 17.625 C 188.589 17.553,189.083 17.408,189.083 17.301 C 189.083 17.195,189.235 17.107,189.420 17.107 C 189.718 17.107,189.758 19.634,189.758 38.492 M194.356 17.306 C 194.424 17.416,195.036 17.575,195.717 17.660 C 196.397 17.745,197.012 17.908,197.083 18.024 C 197.155 18.139,197.407 18.233,197.644 18.233 C 198.645 18.233,204.164 21.121,204.164 21.645 C 204.164 21.764,204.259 21.802,204.376 21.731 C 204.492 21.659,204.691 21.779,204.819 21.999 C 204.947 22.218,205.054 22.322,205.058 22.230 C 205.073 21.851,210.595 27.211,211.367 28.355 C 211.553 28.630,211.857 29.038,212.043 29.263 C 212.228 29.487,212.532 29.895,212.718 30.168 C 212.904 30.442,213.233 30.898,213.450 31.181 C 213.666 31.465,213.844 31.811,213.844 31.950 C 213.844 32.089,213.986 32.258,214.161 32.325 C 214.335 32.392,214.540 32.693,214.615 32.993 C 214.691 33.294,214.852 33.540,214.973 33.540 C 215.095 33.540,215.194 33.695,215.194 33.884 C 215.194 34.074,215.340 34.285,215.518 34.353 C 215.696 34.422,215.907 34.773,215.986 35.134 C 216.065 35.495,216.214 35.791,216.316 35.791 C 216.417 35.791,216.609 36.069,216.742 36.410 C 217.033 37.157,218.011 38.953,218.326 39.317 C 218.450 39.461,218.618 39.841,218.698 40.161 C 218.779 40.481,218.927 40.743,219.027 40.743 C 219.128 40.743,219.277 41.047,219.358 41.418 C 219.440 41.790,219.591 42.093,219.694 42.093 C 219.797 42.093,219.950 42.499,220.034 42.994 C 220.117 43.489,220.278 43.894,220.391 43.894 C 220.504 43.894,220.600 44.021,220.604 44.176 C 220.608 44.330,220.808 44.862,221.047 45.357 C 221.286 45.853,221.485 46.429,221.489 46.638 C 221.493 46.848,221.590 47.077,221.705 47.147 C 221.819 47.218,221.982 47.604,222.066 48.005 C 222.151 48.406,222.351 49.038,222.512 49.409 C 222.845 50.175,223.165 51.352,223.110 51.604 C 223.089 51.697,223.161 51.773,223.269 51.773 C 223.426 51.773,223.659 52.617,223.838 53.836 C 223.851 53.919,223.936 54.062,224.029 54.155 C 224.298 54.424,224.225 54.924,223.917 54.925 C 223.762 54.926,223.343 55.079,222.987 55.265 C 222.630 55.451,221.921 55.667,221.411 55.745 C 220.901 55.822,220.378 55.969,220.248 56.070 C 220.118 56.172,219.586 56.323,219.066 56.406 C 218.546 56.489,218.120 56.636,218.120 56.731 C 218.120 56.827,217.513 56.976,216.770 57.062 C 216.027 57.149,215.419 57.304,215.419 57.409 C 215.419 57.513,214.710 57.668,213.844 57.753 C 212.977 57.839,212.268 57.985,212.268 58.078 C 212.268 58.171,211.508 58.319,210.580 58.406 C 209.651 58.493,208.891 58.631,208.891 58.714 C 208.891 58.796,208.512 58.875,208.047 58.890 C 207.241 58.916,204.430 59.228,202.026 59.559 C 201.407 59.644,199.254 59.755,197.243 59.806 L 193.585 59.897 193.585 38.502 C 193.585 16.649,193.605 16.091,194.356 17.306 M175.127 19.366 C 175.127 19.493,174.949 19.665,174.733 19.747 C 174.320 19.903,169.949 24.150,169.949 24.395 C 169.949 24.472,169.772 24.720,169.555 24.946 C 168.790 25.743,167.923 26.784,167.923 26.907 C 167.923 27.036,167.890 27.079,166.798 28.362 C 166.429 28.796,166.069 29.328,165.997 29.544 C 165.926 29.761,165.773 29.938,165.657 29.938 C 165.542 29.938,165.447 30.036,165.447 30.156 C 165.447 30.276,164.994 31.076,164.439 31.933 C 163.241 33.784,160.945 38.185,160.945 38.630 C 160.945 38.801,160.844 38.942,160.720 38.942 C 160.597 38.942,160.495 39.070,160.495 39.227 C 160.495 39.383,160.293 39.889,160.045 40.351 C 159.797 40.813,159.595 41.344,159.595 41.530 C 159.595 41.716,159.498 41.868,159.380 41.868 C 159.262 41.868,159.099 42.223,159.017 42.656 C 158.936 43.089,158.779 43.444,158.669 43.444 C 158.559 43.444,158.469 43.621,158.468 43.838 C 158.467 44.055,158.325 44.504,158.152 44.836 C 157.978 45.168,157.768 45.750,157.685 46.130 C 157.601 46.510,157.449 46.820,157.346 46.820 C 157.243 46.820,157.087 47.251,157.001 47.777 C 156.914 48.303,156.774 48.835,156.690 48.959 C 156.555 49.159,156.190 50.281,155.592 52.335 C 155.236 53.558,154.970 53.494,149.353 50.847 C 148.239 50.321,147.276 49.881,147.214 49.868 C 147.012 49.824,145.979 49.232,145.864 49.094 C 145.802 49.020,145.245 48.706,144.626 48.396 C 144.007 48.087,143.450 47.771,143.388 47.695 C 143.326 47.619,143.040 47.483,142.752 47.393 C 142.464 47.303,142.281 47.177,142.345 47.113 C 142.409 47.049,142.008 46.755,141.455 46.461 C 140.901 46.166,140.173 45.671,139.838 45.360 C 139.502 45.049,139.167 44.795,139.091 44.795 C 138.971 44.795,138.569 44.491,137.591 43.664 C 137.437 43.533,137.310 43.480,137.310 43.546 C 137.310 43.612,137.057 43.446,136.747 43.177 C 136.438 42.908,136.185 42.595,136.185 42.482 C 136.185 41.931,143.623 34.739,145.725 33.258 C 146.485 32.723,146.843 32.446,147.299 32.040 C 147.892 31.512,153.299 27.912,153.498 27.912 C 153.612 27.912,153.739 27.836,153.780 27.743 C 153.869 27.543,155.380 26.701,158.019 25.381 C 159.071 24.854,159.984 24.355,160.047 24.272 C 160.110 24.189,160.440 24.052,160.779 23.966 C 161.118 23.881,161.396 23.723,161.396 23.614 C 161.396 23.505,161.804 23.350,162.304 23.270 C 162.803 23.191,163.154 23.067,163.083 22.997 C 163.013 22.926,163.339 22.748,163.807 22.602 C 164.276 22.455,165.971 21.867,167.574 21.297 C 169.176 20.726,170.672 20.259,170.897 20.259 C 171.122 20.259,171.482 20.171,171.697 20.063 C 173.104 19.360,175.127 18.948,175.127 19.366 M209.454 19.358 C 209.531 19.482,209.786 19.584,210.022 19.584 C 210.258 19.584,210.885 19.722,211.416 19.891 C 211.946 20.061,213.089 20.423,213.956 20.697 C 214.823 20.971,215.851 21.338,216.241 21.515 C 216.631 21.691,217.106 21.835,217.297 21.835 C 217.488 21.835,217.698 21.922,217.764 22.029 C 217.830 22.136,218.342 22.351,218.902 22.508 C 219.463 22.665,219.921 22.870,219.921 22.964 C 219.921 23.058,220.276 23.202,220.709 23.283 C 221.142 23.364,221.497 23.527,221.497 23.646 C 221.497 23.764,221.627 23.860,221.787 23.860 C 221.946 23.860,222.474 24.063,222.960 24.311 C 223.446 24.558,223.974 24.761,224.133 24.761 C 224.293 24.761,224.423 24.862,224.423 24.986 C 224.423 25.110,224.568 25.211,224.745 25.211 C 224.922 25.211,225.205 25.350,225.374 25.519 C 225.544 25.688,225.931 25.904,226.234 25.999 C 226.538 26.093,227.051 26.357,227.375 26.585 C 227.698 26.812,228.028 26.934,228.106 26.855 C 228.185 26.776,228.250 26.807,228.250 26.923 C 228.250 27.039,228.706 27.383,229.263 27.687 C 229.820 27.991,230.276 28.319,230.276 28.414 C 230.276 28.509,230.393 28.588,230.536 28.588 C 230.679 28.588,231.160 28.866,231.604 29.207 C 232.653 30.010,233.870 30.838,234.000 30.838 C 234.056 30.838,234.298 31.016,234.536 31.232 C 235.085 31.730,235.423 31.988,236.128 32.445 C 236.438 32.646,236.964 33.050,237.297 33.344 C 237.630 33.637,238.433 34.333,239.082 34.890 C 240.644 36.233,246.139 41.643,245.940 41.643 C 245.854 41.643,246.061 41.899,246.399 42.213 L 247.013 42.782 246.241 43.441 C 245.817 43.804,245.343 44.105,245.189 44.110 C 245.034 44.115,244.907 44.214,244.907 44.329 C 244.907 44.445,244.730 44.596,244.513 44.664 C 244.297 44.733,243.866 45.019,243.557 45.300 C 243.247 45.581,242.741 45.936,242.431 46.089 C 241.815 46.393,241.033 46.868,240.855 47.046 C 240.677 47.224,239.894 47.699,239.280 48.001 C 238.970 48.154,238.583 48.406,238.419 48.562 C 238.256 48.719,237.977 48.846,237.800 48.846 C 237.624 48.846,237.479 48.948,237.479 49.071 C 237.479 49.195,237.368 49.297,237.232 49.297 C 236.887 49.297,233.226 51.102,233.074 51.347 C 233.006 51.457,232.761 51.548,232.530 51.548 C 232.298 51.548,231.950 51.707,231.755 51.901 C 231.560 52.096,231.401 52.195,231.401 52.121 C 231.401 52.047,231.097 52.143,230.726 52.335 C 230.355 52.527,230.049 52.606,230.047 52.510 C 230.045 52.414,229.969 52.437,229.878 52.560 C 229.355 53.273,227.800 53.401,227.800 52.732 C 227.800 52.313,226.996 49.750,226.535 48.700 C 226.364 48.310,226.224 47.840,226.224 47.656 C 226.224 47.473,226.073 47.032,225.888 46.677 C 225.703 46.323,225.551 45.855,225.550 45.639 C 225.549 45.422,225.447 45.245,225.324 45.245 C 225.200 45.245,225.098 45.066,225.098 44.848 C 225.098 44.629,224.896 44.072,224.648 43.610 C 224.401 43.148,224.198 42.567,224.198 42.319 C 224.198 42.071,224.105 41.868,223.991 41.868 C 223.877 41.868,223.717 41.564,223.635 41.193 C 223.554 40.822,223.402 40.518,223.298 40.518 C 223.194 40.518,223.037 40.189,222.950 39.786 C 222.862 39.384,222.728 39.004,222.650 38.942 C 222.501 38.823,221.970 37.769,221.401 36.466 C 220.959 35.454,219.871 33.517,219.267 32.668 C 219.008 32.305,218.796 31.893,218.796 31.753 C 218.796 31.614,218.653 31.445,218.478 31.378 C 218.304 31.311,218.099 31.010,218.024 30.710 C 217.948 30.409,217.787 30.163,217.666 30.163 C 217.544 30.163,217.445 30.053,217.445 29.917 C 217.445 29.782,217.268 29.439,217.051 29.156 C 216.835 28.872,216.505 28.410,216.320 28.130 C 216.134 27.850,215.712 27.337,215.382 26.990 C 215.052 26.643,214.715 26.150,214.634 25.895 C 214.553 25.639,214.414 25.474,214.327 25.528 C 214.239 25.583,213.917 25.262,213.611 24.816 C 213.035 23.974,209.155 20.087,208.557 19.752 C 208.369 19.647,208.216 19.465,208.216 19.347 C 208.216 19.062,209.277 19.072,209.454 19.358 M134.745 46.752 C 135.351 47.209,135.898 47.640,135.959 47.710 C 136.276 48.066,138.998 49.747,139.259 49.747 C 139.425 49.747,139.561 49.851,139.561 49.977 C 139.561 50.104,139.789 50.307,140.068 50.427 C 140.589 50.652,141.388 51.123,141.587 51.322 C 141.824 51.560,142.626 52.014,143.219 52.248 C 143.559 52.382,143.838 52.572,143.838 52.671 C 143.838 52.769,144.115 52.919,144.455 53.004 C 144.794 53.089,145.123 53.227,145.186 53.310 C 145.355 53.533,147.334 54.474,147.633 54.474 C 147.774 54.474,147.890 54.575,147.890 54.699 C 147.890 54.823,148.004 54.924,148.143 54.924 C 148.283 54.924,149.017 55.217,149.775 55.574 C 151.837 56.547,153.442 57.175,153.867 57.175 C 154.155 57.175,154.208 57.295,154.088 57.681 C 154.002 57.960,153.835 58.694,153.716 59.313 C 153.597 59.932,153.401 60.692,153.280 61.002 C 153.160 61.311,152.958 62.273,152.832 63.140 C 152.706 64.007,152.554 64.969,152.494 65.279 C 152.149 67.064,151.972 68.455,151.958 69.499 C 151.949 70.149,151.855 70.681,151.748 70.681 C 151.381 70.681,150.646 79.742,150.612 84.693 L 150.591 87.788 134.349 87.788 L 118.106 87.788 118.247 84.035 C 118.325 81.971,118.482 80.224,118.596 80.152 C 118.710 80.081,118.877 79.136,118.967 78.053 C 119.057 76.970,119.210 76.083,119.307 76.083 C 119.404 76.083,119.554 75.475,119.640 74.732 C 119.726 73.989,119.876 73.332,119.973 73.272 C 120.070 73.212,120.220 72.606,120.305 71.925 C 120.390 71.245,120.548 70.633,120.656 70.567 C 120.764 70.500,120.920 69.991,121.003 69.435 C 121.087 68.879,121.236 68.374,121.334 68.313 C 121.433 68.252,121.582 67.798,121.666 67.303 C 121.749 66.809,121.910 66.404,122.023 66.404 C 122.136 66.404,122.232 66.227,122.236 66.010 C 122.240 65.793,122.439 65.211,122.679 64.716 C 122.918 64.221,123.117 63.588,123.121 63.309 C 123.125 63.030,123.230 62.802,123.354 62.802 C 123.478 62.802,123.579 62.696,123.579 62.565 C 123.579 62.293,124.179 60.913,125.287 58.636 C 125.710 57.768,126.055 56.976,126.055 56.876 C 126.055 56.775,126.207 56.541,126.393 56.355 C 126.579 56.169,126.730 55.833,126.730 55.607 C 126.730 55.382,126.882 55.139,127.068 55.068 C 127.254 54.996,127.406 54.783,127.406 54.593 C 127.406 54.404,127.505 54.249,127.627 54.249 C 127.748 54.249,127.916 53.970,127.999 53.630 C 128.082 53.289,128.211 52.960,128.285 52.898 C 128.586 52.645,129.432 51.324,129.432 51.106 C 129.432 50.978,129.531 50.872,129.652 50.872 C 129.774 50.872,129.937 50.619,130.014 50.310 C 130.092 50.000,130.225 49.747,130.309 49.747 C 130.393 49.747,130.965 49.029,131.579 48.151 C 133.415 45.528,133.232 45.609,134.745 46.752 M251.405 48.609 C 252.070 49.538,252.672 50.453,252.743 50.641 C 252.815 50.830,252.980 51.108,253.111 51.258 C 253.733 51.974,253.867 52.179,254.011 52.634 C 254.097 52.903,254.253 53.123,254.359 53.123 C 254.464 53.123,254.617 53.427,254.699 53.799 C 254.781 54.170,254.940 54.474,255.054 54.474 C 255.168 54.474,255.262 54.619,255.262 54.795 C 255.262 54.972,255.398 55.253,255.564 55.420 C 255.900 55.755,258.413 60.889,258.413 61.238 C 258.413 61.359,258.507 61.634,258.622 61.849 C 258.866 62.306,259.132 63.102,259.084 63.228 C 259.065 63.276,259.142 63.377,259.256 63.453 C 259.369 63.528,259.704 64.350,260.001 65.279 C 260.297 66.207,260.606 67.017,260.687 67.079 C 260.768 67.141,260.906 67.622,260.994 68.149 C 261.082 68.675,261.224 69.105,261.311 69.105 C 261.397 69.105,261.593 69.688,261.747 70.400 C 262.404 73.439,262.585 74.182,262.723 74.395 C 262.804 74.519,262.944 75.329,263.035 76.196 C 263.126 77.062,263.289 77.829,263.398 77.899 C 263.507 77.969,263.661 79.160,263.740 80.544 C 263.819 81.929,263.970 83.061,264.075 83.061 C 264.180 83.061,264.266 84.125,264.266 85.425 L 264.266 87.788 248.545 87.788 L 232.824 87.788 232.675 82.691 C 232.594 79.887,232.439 77.481,232.332 77.345 C 232.225 77.208,232.072 75.734,231.991 74.069 C 231.911 72.404,231.758 70.985,231.652 70.917 C 231.546 70.849,231.386 69.882,231.295 68.768 C 231.205 67.653,231.057 66.640,230.967 66.517 C 230.877 66.393,230.674 65.329,230.516 64.153 C 230.358 62.977,230.026 61.255,229.779 60.326 C 229.095 57.759,229.035 57.175,229.456 57.175 C 229.799 57.175,230.505 56.902,232.439 56.021 C 232.948 55.789,233.479 55.599,233.621 55.599 C 233.762 55.599,233.877 55.509,233.877 55.399 C 233.877 55.289,234.232 55.133,234.665 55.051 C 235.098 54.970,235.453 54.815,235.453 54.707 C 235.453 54.598,235.757 54.443,236.128 54.361 C 236.500 54.280,236.804 54.128,236.804 54.024 C 236.804 53.920,237.107 53.768,237.479 53.686 C 237.850 53.604,238.154 53.452,238.154 53.348 C 238.154 53.244,238.458 53.092,238.829 53.011 C 239.201 52.929,239.505 52.792,239.505 52.707 C 239.505 52.621,239.986 52.300,240.574 51.993 C 241.162 51.686,241.677 51.359,241.718 51.266 C 241.760 51.173,241.930 51.097,242.096 51.097 C 242.263 51.097,242.533 50.968,242.696 50.809 C 242.860 50.650,243.703 50.078,244.569 49.537 C 245.436 48.996,246.179 48.467,246.220 48.362 C 246.261 48.257,246.442 48.171,246.621 48.171 C 246.800 48.171,247.005 48.019,247.077 47.833 C 247.148 47.648,247.351 47.496,247.527 47.496 C 247.703 47.496,247.906 47.344,247.977 47.158 C 248.048 46.972,248.201 46.820,248.317 46.820 C 248.433 46.820,248.751 46.612,249.025 46.357 L 249.522 45.893 249.859 46.406 C 250.045 46.688,250.741 47.680,251.405 48.609 M159.876 59.268 C 160.464 59.404,160.945 59.593,160.945 59.688 C 160.945 59.783,161.452 59.928,162.071 60.010 C 162.690 60.092,163.196 60.236,163.196 60.329 C 163.196 60.423,163.752 60.569,164.431 60.654 C 165.110 60.739,165.717 60.892,165.781 60.995 C 165.845 61.098,166.505 61.253,167.248 61.339 C 167.991 61.426,168.651 61.579,168.713 61.680 C 168.776 61.781,169.586 61.935,170.514 62.022 C 171.441 62.109,172.200 62.259,172.200 62.355 C 172.200 62.451,173.112 62.602,174.226 62.690 C 175.340 62.778,176.252 62.941,176.252 63.051 C 176.252 63.162,176.328 63.235,176.421 63.212 C 176.868 63.105,182.471 63.553,182.669 63.712 C 182.794 63.811,184.132 63.918,185.642 63.948 C 187.152 63.978,188.696 64.048,189.073 64.104 L 189.758 64.204 189.758 75.996 L 189.758 87.788 171.947 87.788 L 154.136 87.788 154.277 87.085 C 154.354 86.698,154.418 84.970,154.418 83.245 C 154.418 81.479,154.505 80.162,154.617 80.232 C 154.728 80.300,154.890 78.747,154.980 76.756 C 155.070 74.777,155.221 73.157,155.315 73.157 C 155.408 73.157,155.557 72.144,155.645 70.906 C 155.732 69.668,155.883 68.655,155.979 68.655 C 156.075 68.655,156.223 67.823,156.308 66.805 C 156.393 65.788,156.551 64.901,156.659 64.834 C 156.767 64.767,156.928 63.979,157.016 63.082 C 157.105 62.186,157.255 61.452,157.351 61.452 C 157.446 61.452,157.596 60.835,157.684 60.081 C 157.831 58.811,157.878 58.722,158.325 58.866 C 158.590 58.951,159.288 59.132,159.876 59.268 M225.275 59.032 C 225.402 59.187,225.579 59.820,225.669 60.439 C 225.758 61.058,225.909 61.666,226.005 61.790 C 226.101 61.913,226.252 62.698,226.341 63.534 C 226.429 64.370,226.579 65.053,226.674 65.053 C 226.769 65.053,226.920 65.940,227.009 67.023 C 227.099 68.106,227.257 69.045,227.360 69.110 C 227.463 69.174,227.619 70.289,227.706 71.586 C 227.794 72.883,227.945 73.997,228.042 74.061 C 228.138 74.124,228.290 75.669,228.379 77.493 C 228.468 79.318,228.627 80.810,228.733 80.810 C 228.839 80.810,228.925 82.380,228.925 84.299 L 228.925 87.788 211.255 87.788 L 193.585 87.788 193.585 75.971 C 193.585 69.471,193.661 64.141,193.754 64.127 C 193.846 64.112,195.391 64.017,197.186 63.914 C 198.981 63.811,201.463 63.625,202.701 63.500 C 203.939 63.376,205.383 63.250,205.909 63.221 C 206.435 63.192,206.866 63.099,206.866 63.015 C 206.866 62.930,207.776 62.789,208.888 62.702 C 210.001 62.615,210.962 62.462,211.024 62.362 C 211.085 62.262,211.897 62.109,212.827 62.022 C 213.758 61.935,214.519 61.783,214.519 61.684 C 214.519 61.585,215.176 61.434,215.980 61.348 C 216.783 61.262,217.491 61.110,217.553 61.010 C 217.614 60.910,218.147 60.757,218.737 60.669 C 219.326 60.581,219.910 60.427,220.034 60.327 C 220.158 60.226,220.656 60.082,221.142 60.005 C 221.628 59.929,222.135 59.777,222.268 59.667 C 222.401 59.558,222.991 59.397,223.579 59.309 C 224.167 59.221,224.648 59.060,224.648 58.950 C 224.648 58.659,225.007 58.706,225.275 59.032 M289.364 76.850 C 288.075 77.420,285.875 80.707,285.875 82.062 C 285.875 82.364,285.774 82.611,285.650 82.611 C 285.523 82.611,285.425 83.249,285.425 84.074 C 285.425 84.900,285.523 85.537,285.650 85.537 C 285.774 85.537,285.876 85.715,285.876 85.931 C 285.877 86.408,287.126 87.788,287.556 87.788 C 287.725 87.788,287.899 87.895,287.943 88.026 C 288.075 88.424,291.370 88.319,292.200 87.890 C 293.816 87.054,294.901 85.443,295.130 83.536 C 295.229 82.718,295.427 81.292,295.570 80.368 C 295.913 78.148,295.473 77.210,293.941 76.901 C 293.859 76.885,293.715 76.795,293.622 76.702 C 293.339 76.419,290.083 76.532,289.364 76.850 M291.366 81.988 C 291.242 83.086,291.075 83.523,290.598 84.000 C 289.757 84.841,289.100 84.202,289.688 83.115 C 289.804 82.900,290.125 82.243,290.403 81.654 C 291.146 80.078,291.566 80.223,291.366 81.988 M281.823 88.689 C 281.823 88.813,281.674 88.914,281.491 88.914 C 281.135 88.914,279.653 90.433,279.732 90.716 C 279.758 90.810,279.581 91.066,279.338 91.286 C 279.096 91.505,278.897 91.821,278.897 91.988 C 278.897 92.154,278.810 92.290,278.704 92.290 C 278.491 92.290,276.871 94.700,276.871 95.017 C 276.871 95.127,276.770 95.217,276.646 95.217 C 276.522 95.217,276.421 95.361,276.421 95.538 C 276.421 95.715,276.273 96.007,276.093 96.188 C 275.633 96.648,274.155 99.737,274.290 99.956 C 274.351 100.055,274.780 100.253,275.242 100.397 C 275.705 100.540,276.402 100.801,276.793 100.976 C 277.769 101.414,278.222 101.378,278.222 100.860 C 278.222 100.621,278.348 100.290,278.503 100.123 C 278.658 99.956,279.036 99.316,279.344 98.700 C 279.652 98.084,280.006 97.457,280.132 97.307 C 280.257 97.156,280.474 96.895,280.614 96.727 C 280.754 96.558,280.935 96.209,281.016 95.952 C 281.098 95.694,281.313 95.427,281.494 95.357 C 281.675 95.288,281.823 95.076,281.823 94.886 C 281.823 94.696,281.925 94.541,282.048 94.541 C 282.172 94.541,282.274 94.415,282.274 94.260 C 282.274 93.585,283.321 92.713,283.652 93.112 C 284.065 93.611,283.992 95.499,283.534 96.153 C 283.336 96.436,283.174 96.792,283.174 96.945 C 283.174 97.364,282.166 98.780,280.856 100.201 C 278.928 102.293,278.996 102.065,279.975 103.149 C 280.451 103.677,281.069 104.437,281.347 104.840 C 281.984 105.758,282.117 105.754,282.460 104.806 C 282.612 104.385,283.316 103.446,284.024 102.720 C 284.733 101.993,285.464 101.160,285.650 100.869 C 285.836 100.577,286.114 100.206,286.269 100.045 C 286.424 99.883,286.554 99.668,286.558 99.566 C 286.562 99.464,286.761 98.976,287.001 98.481 C 287.240 97.985,287.439 97.411,287.443 97.205 C 287.447 96.999,287.574 96.789,287.724 96.739 C 288.115 96.608,288.123 92.252,287.732 92.122 C 287.577 92.070,287.451 91.849,287.451 91.631 C 287.451 91.015,285.580 88.915,285.031 88.914 C 284.876 88.914,284.750 88.813,284.750 88.689 C 284.750 88.562,284.112 88.464,283.286 88.464 C 282.461 88.464,281.823 88.562,281.823 88.689 M259.350 106.163 C 258.120 107.375,256.876 109.053,256.706 109.730 C 256.628 110.043,256.481 110.298,256.381 110.298 C 256.280 110.298,256.131 110.602,256.050 110.974 C 255.968 111.345,255.808 111.649,255.694 111.649 C 255.580 111.649,255.486 111.826,255.485 112.043 C 255.485 112.259,255.347 112.699,255.179 113.020 C 255.012 113.341,254.801 114.000,254.710 114.484 C 254.620 114.967,254.429 115.505,254.285 115.679 C 253.934 116.103,253.925 121.505,254.275 121.730 C 254.413 121.818,254.599 122.124,254.688 122.410 C 255.228 124.139,259.316 125.084,259.623 123.551 C 260.044 121.444,259.690 119.418,258.982 119.882 C 257.956 120.554,257.237 119.087,257.951 117.780 C 258.069 117.565,258.227 116.908,258.303 116.320 C 258.379 115.732,258.524 115.250,258.627 115.250 C 258.729 115.250,258.884 114.871,258.971 114.407 C 259.058 113.943,259.221 113.506,259.334 113.437 C 259.446 113.368,259.599 112.203,259.674 110.848 C 259.749 109.493,259.954 107.737,260.129 106.945 C 260.526 105.154,260.451 105.078,259.350 106.163 M270.597 107.745 C 269.447 108.240,268.607 112.398,269.378 113.776 C 269.832 114.587,272.873 111.248,272.986 109.814 C 273.118 108.126,271.987 107.146,270.597 107.745 M112.878 113.544 C 112.883 113.967,112.963 114.389,113.056 114.482 C 113.149 114.574,113.225 114.228,113.225 113.712 C 113.225 113.196,113.144 112.774,113.046 112.774 C 112.948 112.774,112.873 113.121,112.878 113.544 M272.594 118.951 C 272.594 119.144,272.498 119.302,272.379 119.302 C 272.261 119.302,272.098 119.657,272.017 120.090 C 271.935 120.523,271.787 120.878,271.687 120.878 C 271.587 120.878,271.434 121.207,271.348 121.609 C 271.262 122.012,271.114 122.442,271.019 122.566 C 270.923 122.690,270.770 123.146,270.679 123.579 C 270.587 124.012,270.432 124.418,270.335 124.480 C 270.035 124.673,269.721 126.882,269.939 127.271 C 270.204 127.745,271.872 127.751,272.544 127.280 C 273.095 126.895,273.347 119.066,272.819 118.739 C 272.696 118.663,272.594 118.758,272.594 118.951 M123.051 120.015 C 122.381 122.515,122.977 123.804,124.802 123.804 C 125.368 123.804,125.830 123.905,125.830 124.029 C 125.830 124.153,126.025 124.254,126.264 124.254 C 126.503 124.254,126.850 124.406,127.036 124.592 C 127.576 125.132,127.631 125.018,127.631 123.354 C 127.631 121.786,127.634 121.778,128.250 121.775 C 129.493 121.768,129.675 121.117,128.531 120.765 C 128.222 120.670,127.904 120.492,127.826 120.371 C 127.748 120.249,126.735 120.096,125.575 120.032 C 124.415 119.967,123.405 119.819,123.329 119.702 C 123.253 119.585,123.128 119.726,123.051 120.015 M136.016 126.902 C 135.822 127.444,135.517 128.523,135.142 129.999 C 135.058 130.331,135.360 130.797,136.261 131.728 C 136.940 132.429,137.561 133.212,137.643 133.468 C 137.724 133.724,137.877 133.934,137.983 133.934 C 138.088 133.934,138.241 134.237,138.323 134.609 C 138.405 134.980,138.553 135.284,138.653 135.284 C 138.754 135.284,138.902 135.638,138.983 136.070 C 139.326 137.897,141.716 141.137,142.720 141.137 C 142.964 141.137,143.163 141.227,143.163 141.337 C 143.163 141.448,143.420 141.603,143.735 141.682 C 144.049 141.761,144.246 141.924,144.171 142.044 C 144.097 142.164,144.144 142.262,144.275 142.262 C 144.406 142.262,144.513 142.396,144.513 142.560 C 144.513 142.724,144.893 142.952,145.357 143.067 C 146.132 143.258,146.207 143.347,146.273 144.145 C 146.349 145.067,146.705 145.525,148.227 146.657 C 148.723 147.026,149.262 147.454,149.425 147.608 C 149.589 147.763,149.862 147.890,150.031 147.890 C 150.882 147.890,154.868 151.196,154.868 151.902 C 154.868 152.047,154.957 152.167,155.066 152.167 C 155.174 152.167,155.389 152.470,155.543 152.842 C 155.697 153.213,155.904 153.517,156.003 153.517 C 156.102 153.517,156.249 153.821,156.331 154.192 C 156.412 154.564,156.566 154.868,156.673 154.868 C 156.779 154.868,156.934 155.324,157.018 155.881 C 157.102 156.438,157.260 156.894,157.369 156.894 C 157.479 156.894,157.569 157.653,157.569 158.582 C 157.569 159.510,157.483 160.270,157.378 160.270 C 157.143 160.270,157.114 162.099,157.344 162.409 C 157.437 162.532,157.582 163.115,157.667 163.703 C 157.752 164.291,157.909 164.772,158.015 164.772 C 158.121 164.772,158.275 165.075,158.356 165.445 C 158.437 165.815,158.597 166.175,158.712 166.246 C 158.992 166.419,158.977 168.536,158.694 168.711 C 158.410 168.887,158.393 173.776,158.677 173.776 C 158.791 173.776,158.946 174.058,159.022 174.404 C 159.097 174.749,159.476 175.281,159.863 175.585 C 162.632 177.767,163.041 178.695,161.749 179.870 C 160.048 181.418,159.705 182.606,159.723 186.891 C 159.734 189.299,159.827 190.750,159.977 190.845 C 160.108 190.928,160.287 191.426,160.375 191.952 C 160.463 192.477,160.618 192.959,160.720 193.022 C 160.823 193.085,160.974 193.536,161.056 194.023 C 161.138 194.511,161.343 195.023,161.511 195.163 C 161.679 195.302,161.881 195.706,161.958 196.061 C 162.036 196.415,162.245 196.826,162.423 196.973 C 162.601 197.121,162.746 197.381,162.746 197.551 C 162.746 197.722,162.841 197.862,162.956 197.862 C 163.072 197.862,163.225 198.039,163.297 198.255 C 163.472 198.784,165.375 200.774,166.351 201.450 C 166.783 201.749,167.317 202.178,167.538 202.404 C 167.760 202.629,168.089 202.814,168.270 202.814 C 168.451 202.814,168.599 202.915,168.599 203.039 C 168.599 203.163,168.754 203.264,168.943 203.264 C 169.133 203.264,169.343 203.407,169.410 203.581 C 169.477 203.756,169.786 203.962,170.097 204.041 C 170.409 204.119,170.781 204.282,170.925 204.403 C 172.018 205.321,172.306 205.515,172.572 205.515 C 172.739 205.515,172.876 205.619,172.876 205.747 C 172.876 205.875,173.047 206.045,173.257 206.126 C 173.594 206.255,174.421 207.051,175.313 208.106 C 175.477 208.300,175.666 208.992,175.733 209.644 C 175.801 210.296,176.000 211.026,176.176 211.267 C 176.492 211.698,177.200 211.706,221.268 211.763 L 266.040 211.821 266.628 211.275 C 267.216 210.730,267.468 207.991,266.930 207.991 C 266.826 207.991,266.742 206.472,266.742 204.615 C 266.742 202.514,266.827 201.238,266.967 201.238 C 267.357 201.238,267.237 196.901,266.808 195.507 C 266.597 194.821,266.348 194.260,266.255 194.260 C 266.163 194.260,266.020 193.905,265.939 193.472 C 265.858 193.039,265.713 192.684,265.618 192.684 C 265.523 192.684,265.397 191.747,265.340 190.602 C 265.249 188.814,265.130 188.315,264.495 187.066 C 263.792 185.682,263.763 185.526,263.892 183.848 C 264.033 182.023,263.696 178.552,263.342 178.177 C 262.827 177.631,263.458 173.422,264.097 173.138 C 264.190 173.097,264.266 172.892,264.266 172.682 C 264.266 172.472,264.403 172.101,264.571 171.857 C 264.739 171.612,265.006 170.855,265.163 170.174 C 265.321 169.494,265.536 168.828,265.640 168.695 C 265.745 168.562,265.898 167.729,265.980 166.844 C 266.063 165.959,266.203 165.280,266.292 165.335 C 266.381 165.390,266.519 164.810,266.599 164.047 C 266.679 163.284,266.832 162.603,266.940 162.534 C 267.048 162.465,267.211 161.953,267.302 161.396 C 267.393 160.838,267.583 160.240,267.724 160.066 C 267.994 159.731,268.087 149.610,267.822 149.346 C 267.747 149.270,267.226 149.419,266.663 149.675 C 266.101 149.931,265.230 150.141,264.728 150.141 L 263.815 150.141 263.815 151.505 C 263.815 152.356,263.900 152.816,264.041 152.729 C 264.186 152.640,264.266 153.548,264.266 155.291 C 264.266 156.849,264.170 158.051,264.041 158.132 C 263.917 158.208,263.815 158.514,263.815 158.812 C 263.815 159.110,263.613 159.867,263.365 160.495 C 263.118 161.123,262.915 161.988,262.915 162.417 C 262.915 162.846,262.827 163.196,262.719 163.196 C 262.611 163.196,262.453 163.903,262.368 164.767 C 262.283 165.631,262.131 166.388,262.031 166.450 C 261.931 166.512,261.782 167.067,261.700 167.684 C 261.618 168.301,261.465 168.859,261.358 168.925 C 261.252 168.990,261.099 169.400,261.017 169.834 C 260.935 170.269,260.777 170.625,260.664 170.625 C 260.551 170.625,260.393 170.980,260.311 171.415 C 260.230 171.850,260.079 172.257,259.976 172.321 C 259.874 172.384,259.720 172.915,259.636 173.500 C 259.551 174.085,259.403 174.665,259.306 174.789 C 259.039 175.130,259.210 177.919,259.636 180.191 C 259.846 181.306,260.006 182.319,259.993 182.442 C 259.774 184.500,259.760 186.832,259.966 186.832 C 260.102 186.832,260.215 187.060,260.217 187.338 C 260.218 187.617,260.514 188.425,260.874 189.134 C 261.408 190.188,261.557 190.835,261.687 192.675 C 261.775 193.913,261.923 194.879,262.016 194.822 C 262.109 194.764,262.247 195.026,262.322 195.404 C 262.398 195.782,262.541 196.040,262.641 195.979 C 263.003 195.755,263.062 197.230,262.968 204.108 L 262.915 207.991 221.169 207.991 L 179.424 207.991 179.278 207.211 C 179.197 206.782,178.990 206.314,178.817 206.171 C 178.644 206.027,178.503 205.785,178.503 205.633 C 178.503 205.183,174.995 202.045,174.217 201.798 C 173.974 201.721,173.776 201.563,173.776 201.448 C 173.776 201.333,173.649 201.238,173.494 201.238 C 173.339 201.238,172.713 200.884,172.104 200.450 C 171.494 200.017,170.861 199.662,170.698 199.662 C 170.534 199.662,170.400 199.558,170.400 199.430 C 170.400 199.302,170.222 199.133,170.006 199.053 C 169.789 198.973,169.384 198.667,169.105 198.373 C 168.827 198.079,168.599 197.898,168.599 197.970 C 168.599 198.085,168.060 197.540,166.932 196.286 C 166.361 195.651,165.222 193.648,165.222 193.278 C 165.222 193.075,165.126 192.909,165.007 192.909 C 164.889 192.909,164.726 192.555,164.645 192.122 C 164.563 191.688,164.415 191.334,164.315 191.334 C 164.215 191.334,164.062 190.674,163.976 189.867 C 163.889 189.061,163.729 188.346,163.620 188.278 C 162.813 187.779,163.574 184.042,164.742 182.774 C 165.778 181.648,165.904 181.453,166.043 180.759 C 166.118 180.385,166.268 180.079,166.376 180.079 C 166.484 180.079,166.573 179.420,166.573 178.616 C 166.573 177.790,166.475 177.153,166.348 177.153 C 166.224 177.153,166.123 176.946,166.123 176.693 C 166.123 176.071,164.012 173.326,163.533 173.326 C 163.000 173.326,162.013 171.673,162.346 171.340 C 162.667 171.019,162.705 164.803,162.387 164.595 C 162.251 164.507,162.066 164.132,161.975 163.761 C 161.884 163.391,161.692 163.015,161.547 162.925 C 161.364 162.812,161.300 161.946,161.339 160.109 C 161.395 157.439,161.089 154.207,160.760 153.978 C 160.662 153.910,160.444 153.500,160.276 153.067 C 159.218 150.350,158.719 149.888,157.006 150.047 C 154.307 150.297,152.700 148.795,152.773 146.089 L 152.813 144.626 151.891 144.196 C 150.836 143.704,148.115 141.056,148.115 140.521 C 148.115 140.419,147.938 140.178,147.721 139.984 C 147.504 139.790,147.178 139.413,146.996 139.146 C 146.814 138.879,146.546 138.661,146.401 138.661 C 146.256 138.661,146.079 138.509,146.008 138.323 C 145.936 138.137,145.698 137.985,145.477 137.985 C 144.894 137.985,143.448 136.617,143.267 135.893 C 143.181 135.553,142.933 135.149,142.715 134.996 C 142.492 134.840,142.190 134.130,142.023 133.370 C 141.737 132.072,141.108 130.867,140.518 130.490 C 140.363 130.391,140.236 130.221,140.236 130.112 C 140.236 130.003,139.583 129.274,138.785 128.491 C 136.424 126.177,136.301 126.106,136.016 126.902 M269.218 136.635 C 269.218 137.254,269.116 137.760,268.993 137.760 C 268.869 137.760,268.768 137.943,268.768 138.167 C 268.768 138.427,268.436 138.720,267.851 138.978 C 266.777 139.452,265.616 140.518,265.616 141.030 C 265.616 141.227,265.526 141.333,265.417 141.265 C 265.218 141.142,264.950 141.840,264.944 142.497 C 264.942 142.718,265.299 142.940,265.927 143.108 C 266.469 143.253,267.218 143.629,267.591 143.942 C 268.428 144.647,268.460 144.647,268.636 143.945 C 268.812 143.246,269.449 142.585,270.152 142.371 C 270.891 142.147,272.565 140.342,272.715 139.608 C 272.784 139.273,272.937 138.632,273.055 138.184 C 273.173 137.737,273.270 136.952,273.270 136.440 L 273.270 135.509 271.244 135.509 L 269.218 135.509 269.218 136.635 M264.170 145.448 C 263.808 146.173,263.707 147.346,263.952 147.984 C 264.134 148.457,265.576 148.455,266.254 147.981 C 266.569 147.760,266.978 147.675,267.317 147.760 C 267.744 147.867,267.868 147.809,267.873 147.500 C 267.876 147.281,267.939 146.557,268.014 145.890 L 268.150 144.679 267.473 145.078 C 266.843 145.451,266.761 145.453,266.269 145.108 C 265.396 144.496,264.578 144.629,264.170 145.448 M155.067 146.595 C 154.956 147.803,155.353 148.340,156.358 148.340 C 157.319 148.340,157.311 148.254,156.245 147.188 C 155.310 146.253,155.108 146.151,155.067 146.595 " stroke="none" fill="#e3dbd3" fill-rule="evenodd"></path><path id="path1" d="M268.993 99.944 C 268.683 100.186,268.288 100.386,268.115 100.389 C 267.942 100.392,267.189 100.617,266.442 100.889 C 265.480 101.240,265.058 101.308,264.995 101.120 C 264.795 100.518,260.889 103.800,260.889 104.572 C 260.889 104.723,260.715 104.915,260.502 104.996 C 260.189 105.116,260.173 105.182,260.421 105.335 C 260.680 105.495,260.681 105.699,260.428 106.617 C 259.828 108.796,259.281 119.360,259.744 119.823 C 260.072 120.151,260.065 123.506,259.736 123.709 C 259.211 124.033,259.617 128.265,260.312 129.726 C 260.931 131.028,263.049 133.483,263.552 133.483 C 263.697 133.483,263.815 133.561,263.815 133.655 C 263.815 133.750,264.347 134.065,264.997 134.356 C 265.647 134.647,266.411 134.994,266.694 135.127 C 267.431 135.474,275.579 135.446,275.696 135.097 C 275.744 134.952,275.932 134.834,276.114 134.834 C 276.624 134.834,278.447 133.950,278.447 133.703 C 278.447 133.582,278.591 133.483,278.767 133.483 C 279.183 133.483,281.148 131.518,281.148 131.102 C 281.148 130.926,281.247 130.782,281.367 130.782 C 282.458 130.782,282.611 129.200,282.611 117.952 C 282.611 106.892,282.533 105.580,281.869 105.559 C 281.488 105.547,279.752 103.389,279.138 102.162 C 278.824 101.535,278.551 101.408,277.685 101.486 C 277.452 101.507,277.148 101.436,277.010 101.327 C 276.872 101.218,276.228 100.956,275.579 100.744 C 274.931 100.533,274.343 100.266,274.272 100.152 C 274.201 100.037,273.896 99.944,273.594 99.944 C 273.292 99.944,273.044 99.842,273.044 99.719 C 273.044 99.269,269.612 99.460,268.993 99.944 M353.292 99.719 C 353.216 99.842,352.728 99.947,352.210 99.951 C 351.691 99.956,350.861 100.155,350.366 100.394 C 349.871 100.633,349.339 100.832,349.184 100.836 C 349.029 100.841,348.903 100.945,348.903 101.069 C 348.903 101.193,348.762 101.294,348.590 101.294 C 347.965 101.294,344.851 104.718,344.851 105.405 C 344.851 105.570,344.757 105.802,344.643 105.920 C 343.560 107.036,343.571 114.125,344.655 114.125 C 344.763 114.125,344.851 114.335,344.851 114.591 C 344.851 115.295,349.232 119.527,349.961 119.527 C 350.122 119.527,350.253 119.632,350.253 119.759 C 350.253 119.887,350.431 120.056,350.647 120.135 C 350.864 120.214,351.575 120.616,352.227 121.029 C 352.880 121.441,353.462 121.778,353.522 121.778 C 353.581 121.778,353.819 121.956,354.050 122.172 C 354.281 122.389,354.812 122.887,355.231 123.279 C 356.488 124.454,356.669 124.764,356.669 125.747 C 356.669 127.745,354.213 128.663,352.892 127.157 C 352.362 126.553,352.279 126.265,352.279 125.019 L 352.279 123.579 347.890 123.579 L 343.500 123.579 343.500 125.445 C 343.500 129.352,345.633 133.494,347.946 134.079 C 348.225 134.150,348.452 134.298,348.452 134.408 C 348.452 134.519,348.579 134.610,348.734 134.610 C 348.889 134.611,349.319 134.784,349.690 134.995 C 350.703 135.571,358.600 135.575,359.595 135.001 C 359.966 134.787,360.397 134.611,360.551 134.610 C 360.706 134.610,360.833 134.508,360.833 134.384 C 360.833 134.260,360.951 134.159,361.095 134.159 C 361.393 134.159,361.779 133.835,363.339 132.276 C 363.941 131.674,364.434 131.084,364.434 130.966 C 364.434 130.847,364.586 130.598,364.772 130.412 C 364.958 130.227,365.110 129.879,365.110 129.641 C 365.110 129.402,365.206 129.207,365.325 129.207 C 365.443 129.207,365.600 128.827,365.675 128.362 C 365.749 127.898,365.905 127.342,366.022 127.127 C 366.292 126.633,366.304 122.904,366.036 122.904 C 365.926 122.904,365.768 122.448,365.684 121.891 C 365.601 121.334,365.437 120.878,365.321 120.878 C 365.205 120.878,365.110 120.772,365.110 120.644 C 365.110 119.957,361.597 116.287,360.242 115.557 C 359.824 115.332,359.482 115.070,359.482 114.974 C 359.482 114.878,359.390 114.800,359.277 114.800 C 359.109 114.800,356.294 113.029,354.980 112.096 C 354.795 111.964,354.538 111.785,354.410 111.696 C 353.186 110.854,352.793 108.935,353.686 108.155 C 354.475 107.466,355.296 107.081,355.388 107.358 C 355.432 107.490,355.586 107.599,355.731 107.601 C 356.422 107.610,356.672 108.075,356.781 109.558 L 356.894 111.086 361.227 111.147 L 365.560 111.208 365.560 109.065 C 365.560 107.886,365.472 106.922,365.364 106.922 C 365.257 106.922,365.115 106.519,365.049 106.028 C 364.983 105.536,364.793 104.982,364.626 104.797 C 363.959 104.060,363.759 103.781,363.759 103.588 C 363.759 103.283,362.846 102.376,361.902 101.745 C 361.439 101.435,361.060 101.106,361.060 101.013 C 361.059 100.920,360.931 100.841,360.777 100.836 C 360.622 100.832,360.090 100.633,359.595 100.394 C 359.100 100.155,358.264 99.956,357.738 99.951 C 357.212 99.947,356.781 99.842,356.781 99.719 C 356.781 99.589,356.073 99.494,355.106 99.494 C 354.185 99.494,353.369 99.595,353.292 99.719 M220.822 101.072 C 220.822 101.322,220.920 101.701,221.041 101.916 C 221.161 102.131,221.361 102.915,221.484 103.658 C 221.606 104.401,221.916 106.021,222.172 107.259 C 222.428 108.497,222.738 110.118,222.861 110.861 C 222.984 111.604,223.177 112.377,223.289 112.580 C 223.402 112.783,223.565 113.593,223.651 114.381 C 223.736 115.169,223.883 115.914,223.977 116.038 C 224.071 116.162,224.221 116.820,224.311 117.501 C 224.400 118.182,224.551 118.841,224.646 118.965 C 224.741 119.088,224.890 119.872,224.976 120.707 C 225.063 121.541,225.219 122.277,225.324 122.341 C 225.428 122.406,225.584 123.141,225.671 123.975 C 225.758 124.810,225.908 125.594,226.005 125.718 C 226.101 125.841,226.253 126.525,226.341 127.237 C 226.429 127.949,226.576 128.531,226.668 128.531 C 226.760 128.531,226.902 129.261,226.985 130.154 C 227.068 131.046,227.223 131.831,227.328 131.898 C 227.434 131.965,227.593 132.653,227.682 133.427 L 227.844 134.834 231.931 134.834 L 236.018 134.834 236.291 134.215 C 236.441 133.875,236.631 132.988,236.714 132.245 C 236.797 131.503,236.941 130.793,237.034 130.670 C 237.128 130.546,237.276 129.710,237.364 128.813 C 237.452 127.915,237.601 127.181,237.695 127.181 C 237.788 127.181,237.972 126.396,238.103 125.436 C 238.775 120.514,238.989 120.829,240.204 128.531 C 240.331 129.336,240.524 130.197,240.633 130.445 C 240.741 130.692,240.897 131.629,240.978 132.527 C 241.060 133.424,241.217 134.159,241.328 134.159 C 241.440 134.159,241.531 134.313,241.531 134.501 C 241.531 134.798,242.096 134.836,245.751 134.783 L 249.972 134.721 250.045 133.824 C 250.085 133.330,250.200 132.824,250.301 132.698 C 250.402 132.573,250.558 131.913,250.647 131.232 C 250.737 130.551,250.888 129.893,250.983 129.769 C 251.078 129.645,251.226 128.860,251.313 128.025 C 251.400 127.189,251.555 126.505,251.659 126.505 C 251.762 126.505,251.918 125.746,252.005 124.817 C 252.092 123.889,252.243 123.129,252.340 123.129 C 252.437 123.129,252.588 122.496,252.676 121.722 C 252.764 120.948,252.913 120.214,253.008 120.090 C 253.103 119.966,253.252 119.181,253.339 118.346 C 253.426 117.510,253.581 116.826,253.685 116.826 C 253.788 116.826,253.944 116.066,254.031 115.138 C 254.118 114.209,254.269 113.450,254.366 113.450 C 254.463 113.450,254.614 112.817,254.702 112.043 C 254.790 111.269,254.940 110.535,255.037 110.411 C 255.133 110.287,255.285 109.527,255.374 108.723 C 255.464 107.918,255.630 107.144,255.743 107.004 C 255.856 106.863,256.012 106.078,256.088 105.259 C 256.165 104.440,256.302 103.770,256.394 103.770 C 256.485 103.770,256.632 103.197,256.719 102.497 C 256.807 101.797,256.931 101.088,256.995 100.921 C 257.131 100.566,248.405 100.465,248.186 100.820 C 248.118 100.930,247.946 102.069,247.804 103.352 C 247.662 104.634,247.465 105.788,247.366 105.915 C 247.267 106.042,247.116 106.954,247.030 107.941 C 246.944 108.928,246.796 109.837,246.701 109.961 C 246.606 110.084,246.455 110.971,246.366 111.930 C 246.278 112.890,246.115 113.675,246.006 113.675 C 245.897 113.675,245.806 114.055,245.805 114.519 C 245.797 117.420,245.253 117.624,245.032 114.808 C 244.945 113.693,244.789 112.728,244.686 112.664 C 244.583 112.601,244.427 111.586,244.339 110.410 C 244.250 109.235,244.100 108.272,244.004 108.272 C 243.908 108.272,243.757 107.361,243.669 106.246 C 243.581 105.132,243.418 104.221,243.308 104.221 C 243.197 104.221,243.106 103.880,243.106 103.464 C 243.106 103.048,243.042 102.238,242.963 101.663 L 242.820 100.619 239.362 100.619 C 236.053 100.619,235.903 100.639,235.903 101.069 C 235.903 101.317,235.814 101.519,235.705 101.519 C 235.596 101.519,235.435 102.380,235.347 103.432 C 235.259 104.484,235.109 105.393,235.012 105.453 C 234.916 105.513,234.765 106.474,234.678 107.589 C 234.591 108.704,234.433 109.670,234.328 109.736 C 234.222 109.801,234.064 110.767,233.977 111.882 C 233.890 112.997,233.730 113.964,233.623 114.031 C 233.515 114.097,233.427 114.492,233.427 114.908 C 233.427 117.102,232.825 116.764,232.633 114.463 C 232.545 113.410,232.396 112.549,232.302 112.549 C 232.207 112.549,232.058 111.587,231.970 110.411 C 231.882 109.235,231.727 108.272,231.626 108.272 C 231.524 108.272,231.370 107.386,231.282 106.303 C 231.194 105.219,231.045 104.232,230.949 104.108 C 230.854 103.984,230.704 103.149,230.616 102.251 L 230.455 100.619 225.638 100.619 C 220.961 100.619,220.822 100.632,220.822 101.072 M288.126 117.714 L 288.126 134.834 292.966 134.834 L 297.805 134.834 297.805 128.306 L 297.805 121.778 298.818 121.778 C 299.375 121.778,299.831 121.880,299.831 122.003 C 299.831 122.127,299.971 122.228,300.143 122.228 C 300.966 122.228,301.138 123.141,301.217 127.918 C 301.273 131.244,301.374 132.641,301.576 132.842 C 301.730 132.997,301.859 133.280,301.861 133.472 C 301.863 133.664,302.105 134.049,302.399 134.328 C 303.177 135.065,311.536 135.128,311.536 134.397 C 311.536 134.157,311.448 133.906,311.341 133.839 C 311.233 133.773,311.077 133.291,310.993 132.768 C 310.910 132.245,310.723 131.675,310.578 131.500 C 310.402 131.288,310.285 129.560,310.223 126.256 C 310.173 123.545,310.053 121.328,309.958 121.328 C 309.862 121.328,309.719 121.068,309.639 120.751 C 309.467 120.063,308.214 118.627,307.786 118.627 C 307.259 118.627,307.462 118.080,308.162 117.614 C 308.534 117.366,308.901 116.966,308.979 116.724 C 309.056 116.482,309.258 116.146,309.428 115.976 C 309.597 115.807,309.736 115.473,309.736 115.234 C 309.736 114.996,309.837 114.800,309.961 114.800 C 310.245 114.800,310.270 106.775,309.986 106.600 C 309.876 106.532,309.720 106.121,309.638 105.686 C 309.557 105.252,309.393 104.896,309.275 104.896 C 309.157 104.896,309.060 104.793,309.060 104.668 C 309.060 104.202,308.046 102.914,307.271 102.396 C 306.831 102.102,306.421 101.802,306.359 101.729 C 305.579 100.813,304.908 100.741,296.398 100.666 L 288.126 100.594 288.126 117.714 M316.488 117.727 L 316.488 134.834 321.315 134.834 L 326.141 134.834 326.211 130.323 C 326.259 127.187,326.361 125.763,326.544 125.650 C 326.689 125.561,326.877 125.210,326.962 124.871 C 327.047 124.532,327.207 124.254,327.318 124.254 C 327.428 124.254,327.518 124.090,327.518 123.889 C 327.518 123.115,328.145 124.048,328.295 125.044 C 328.377 125.594,328.531 126.098,328.636 126.163 C 328.741 126.228,328.896 126.787,328.981 127.406 C 329.067 128.025,329.219 128.531,329.319 128.531 C 329.420 128.531,329.572 129.038,329.657 129.657 C 329.742 130.276,329.890 130.782,329.985 130.782 C 330.080 130.782,330.220 131.236,330.296 131.790 C 330.372 132.345,330.532 132.978,330.651 133.197 C 330.770 133.416,330.926 133.875,330.998 134.215 L 331.128 134.834 336.039 134.834 C 338.740 134.834,341.004 134.780,341.070 134.713 C 341.198 134.585,340.712 132.945,340.366 132.335 C 340.253 132.136,340.091 131.503,340.004 130.928 C 339.918 130.353,339.767 129.882,339.668 129.882 C 339.569 129.882,339.418 129.468,339.333 128.963 C 339.247 128.458,339.037 127.774,338.864 127.444 C 338.692 127.113,338.550 126.615,338.550 126.337 C 338.549 126.058,338.456 125.830,338.344 125.830 C 338.232 125.830,338.071 125.324,337.985 124.705 C 337.900 124.086,337.745 123.579,337.640 123.579 C 337.536 123.579,337.382 123.123,337.298 122.566 C 337.215 122.009,337.063 121.553,336.961 121.553 C 336.858 121.553,336.707 121.097,336.623 120.540 C 336.539 119.983,336.394 119.527,336.301 119.527 C 336.207 119.527,336.063 119.021,335.981 118.402 C 335.899 117.783,335.743 117.276,335.634 117.276 C 335.525 117.276,335.364 116.846,335.276 116.320 C 335.188 115.793,335.002 115.290,334.863 115.201 C 334.675 115.081,334.675 114.933,334.862 114.631 C 335.001 114.406,335.186 113.897,335.273 113.499 C 335.361 113.100,335.526 112.774,335.640 112.774 C 335.754 112.774,335.847 112.617,335.847 112.424 C 335.847 112.103,336.501 110.440,336.952 109.616 C 337.055 109.426,337.212 108.945,337.299 108.546 C 337.387 108.148,337.552 107.822,337.666 107.822 C 337.780 107.822,337.873 107.645,337.874 107.428 C 337.875 107.212,338.017 106.763,338.191 106.430 C 338.364 106.098,338.574 105.516,338.657 105.136 C 338.741 104.756,338.891 104.446,338.991 104.446 C 339.091 104.446,339.240 104.091,339.321 103.658 C 339.402 103.225,339.554 102.870,339.659 102.870 C 339.763 102.870,339.916 102.508,339.999 102.066 C 340.082 101.624,340.206 101.118,340.274 100.941 C 340.409 100.589,331.278 100.446,330.758 100.791 C 330.622 100.882,330.440 101.337,330.354 101.801 C 330.269 102.265,330.114 102.645,330.009 102.645 C 329.905 102.645,329.754 102.995,329.673 103.423 C 329.593 103.851,329.380 104.484,329.199 104.830 C 329.019 105.176,328.871 105.681,328.870 105.952 C 328.870 106.223,328.775 106.503,328.661 106.573 C 328.547 106.644,328.385 107.011,328.302 107.390 C 328.219 107.768,328.009 108.349,327.836 108.681 C 327.663 109.014,327.520 109.513,327.520 109.792 C 327.519 110.070,327.422 110.298,327.303 110.298 C 327.185 110.298,327.019 110.669,326.934 111.121 C 326.359 114.186,326.170 113.137,326.169 106.866 L 326.168 100.619 321.328 100.619 L 316.488 100.619 316.488 117.727 M272.739 107.946 C 273.251 108.458,273.296 108.635,273.158 109.578 C 272.876 111.498,272.780 118.402,273.034 118.402 C 273.189 118.402,273.270 119.818,273.270 122.554 C 273.270 127.450,273.095 127.917,271.268 127.917 C 269.536 127.917,269.565 128.033,269.486 120.645 C 269.445 116.757,269.332 114.125,269.205 114.125 C 269.085 114.125,268.993 113.051,268.993 111.649 L 268.993 109.173 269.893 108.272 C 270.988 107.178,271.869 107.077,272.739 107.946 M300.366 108.241 C 300.689 108.598,300.736 109.106,300.682 111.674 L 300.619 114.688 299.212 114.755 L 297.805 114.822 297.805 111.322 L 297.805 107.822 298.896 107.822 C 299.674 107.822,300.095 107.942,300.366 108.241 M88.557 143.729 L 87.676 144.560 87.676 146.524 C 87.676 149.354,88.302 149.992,91.197 150.107 C 94.183 150.225,95.830 148.901,94.314 147.602 C 93.843 147.199,93.191 147.080,93.191 147.396 C 93.191 147.695,91.354 148.418,91.195 148.182 C 91.117 148.065,90.875 147.904,90.658 147.824 C 90.137 147.632,90.108 145.827,90.618 145.317 C 91.106 144.829,92.116 144.874,92.803 145.414 C 93.346 145.842,94.091 145.827,94.091 145.390 C 94.091 145.279,94.232 145.189,94.405 145.189 C 94.577 145.189,94.780 145.028,94.855 144.832 C 95.284 143.714,94.152 143.061,91.631 142.974 L 89.438 142.898 88.557 143.729 M97.946 143.096 C 96.689 143.595,95.236 147.890,96.324 147.890 C 96.438 147.890,96.597 148.189,96.678 148.555 C 96.766 148.957,97.014 149.280,97.304 149.372 C 97.568 149.456,97.923 149.663,98.092 149.833 C 98.508 150.248,101.817 150.259,102.235 149.847 C 102.399 149.685,102.705 149.487,102.916 149.408 C 103.790 149.077,104.687 145.728,104.013 145.312 C 103.899 145.241,103.744 144.906,103.669 144.567 C 103.379 143.248,99.848 142.341,97.946 143.096 M105.571 146.539 L 105.571 150.141 108.835 150.141 L 112.099 150.141 112.099 149.015 L 112.099 147.890 110.186 147.890 L 108.272 147.890 108.272 145.414 L 108.272 142.938 106.922 142.938 L 105.571 142.938 105.571 146.539 M113.900 146.545 L 113.900 150.152 117.333 150.090 L 120.765 150.028 120.765 149.015 L 120.765 148.002 118.683 147.938 L 116.601 147.873 116.601 145.405 L 116.601 142.938 115.250 142.938 L 113.900 142.938 113.900 146.545 M122.454 146.539 L 122.454 150.141 125.605 150.141 L 128.756 150.141 128.756 149.015 L 128.756 147.890 126.843 147.890 C 125.292 147.890,124.930 147.826,124.930 147.552 C 124.930 147.287,125.242 147.214,126.393 147.214 L 127.856 147.214 127.856 146.427 L 127.856 145.639 126.393 145.639 C 125.242 145.639,124.930 145.567,124.930 145.301 C 124.930 145.027,125.292 144.963,126.843 144.963 L 128.756 144.963 128.756 143.950 L 128.756 142.938 125.605 142.938 L 122.454 142.938 122.454 146.539 M132.360 143.105 C 130.469 143.846,129.892 147.707,131.440 149.257 C 132.379 150.197,135.513 150.555,136.260 149.808 C 136.598 149.470,136.650 149.468,136.772 149.786 C 136.852 149.996,137.174 150.141,137.559 150.141 L 138.210 150.141 138.210 148.002 L 138.210 145.864 137.591 145.857 L 136.972 145.850 137.607 145.291 C 138.310 144.673,138.328 144.129,137.657 143.750 C 137.415 143.612,137.078 143.374,136.910 143.219 C 136.595 142.931,133.032 142.841,132.360 143.105 M139.837 146.483 L 139.899 150.028 143.219 150.090 L 146.539 150.153 146.539 149.021 L 146.539 147.890 144.513 147.890 C 142.863 147.890,142.487 147.827,142.487 147.552 C 142.487 147.287,142.800 147.214,143.950 147.214 L 145.414 147.214 145.414 146.427 L 145.414 145.639 143.950 145.639 C 142.800 145.639,142.487 145.567,142.487 145.301 C 142.487 145.027,142.853 144.963,144.425 144.963 C 146.099 144.963,146.344 144.915,146.226 144.607 C 146.150 144.412,146.089 144.110,146.089 143.938 C 146.089 143.264,144.843 142.938,142.268 142.938 L 139.775 142.938 139.837 146.483 M153.667 143.610 C 152.343 144.773,152.845 148.388,154.464 149.344 C 155.810 150.140,158.647 149.970,159.539 149.040 C 160.330 148.214,160.600 145.710,160.033 144.463 C 159.269 142.788,155.221 142.246,153.667 143.610 M161.896 146.477 L 161.958 150.028 163.253 150.096 L 164.547 150.163 164.547 148.914 L 164.547 147.665 165.542 147.665 C 166.990 147.665,167.248 147.508,167.248 146.628 L 167.248 145.864 165.898 145.864 C 164.706 145.864,164.547 145.812,164.547 145.422 C 164.547 145.022,164.732 144.975,166.517 144.916 L 168.486 144.851 168.486 143.950 L 168.486 143.050 165.160 142.988 L 161.834 142.925 161.896 146.477 M174.451 146.539 L 174.451 150.141 177.828 150.141 L 181.204 150.141 181.204 149.015 L 181.204 147.890 179.066 147.890 L 176.927 147.890 176.927 145.414 L 176.927 142.938 175.689 142.938 L 174.451 142.938 174.451 146.539 M182.780 146.539 L 182.780 150.141 186.156 150.141 L 189.533 150.141 189.533 149.015 L 189.533 147.890 187.507 147.890 C 185.856 147.890,185.481 147.827,185.481 147.552 C 185.481 147.289,185.781 147.214,186.832 147.214 L 188.182 147.214 188.182 146.427 L 188.182 145.639 186.832 145.639 C 185.781 145.639,185.481 145.564,185.481 145.301 C 185.481 145.026,185.856 144.963,187.507 144.963 L 189.533 144.963 189.533 143.950 L 189.533 142.938 186.156 142.938 L 182.780 142.938 182.780 146.539 M191.109 144.063 L 191.109 145.189 192.347 145.189 L 193.585 145.189 193.585 147.665 L 193.585 150.141 194.823 150.141 L 196.061 150.141 196.061 147.676 L 196.061 145.212 197.243 145.144 L 198.424 145.076 198.493 144.007 L 198.562 142.938 194.835 142.938 L 191.109 142.938 191.109 144.063 M199.887 144.063 L 199.887 145.189 201.013 145.189 L 202.138 145.189 202.138 147.665 L 202.138 150.141 203.489 150.141 L 204.840 150.141 204.840 147.665 L 204.840 145.189 205.965 145.189 L 207.091 145.189 207.091 144.063 L 207.091 142.938 203.489 142.938 L 199.887 142.938 199.887 144.063 M208.891 146.539 L 208.891 150.141 212.155 150.141 L 215.419 150.141 215.419 149.015 L 215.419 147.890 213.506 147.890 C 211.955 147.890,211.593 147.826,211.593 147.552 C 211.593 147.293,211.880 147.214,212.831 147.214 L 214.069 147.214 214.069 146.427 L 214.069 145.639 212.831 145.639 C 211.880 145.639,211.593 145.560,211.593 145.301 C 211.593 145.027,211.955 144.963,213.506 144.963 L 215.419 144.963 215.419 143.950 L 215.419 142.938 212.155 142.938 L 208.891 142.938 208.891 146.539 M217.445 146.533 L 217.445 150.163 218.739 150.096 L 220.034 150.028 220.102 148.834 L 220.171 147.639 221.003 147.708 C 221.800 147.774,221.840 147.818,221.965 148.753 C 222.121 149.922,222.400 150.133,223.804 150.137 C 224.846 150.141,225.471 149.252,224.624 148.970 C 224.462 148.916,224.379 148.031,224.386 146.423 C 224.400 143.057,224.420 143.075,220.434 142.976 L 217.445 142.903 217.445 146.533 M227.165 143.501 C 225.210 145.145,226.470 147.047,229.994 147.775 C 230.397 147.858,230.726 148.019,230.726 148.133 C 230.726 148.403,228.761 148.404,228.663 148.134 C 228.507 147.706,226.988 147.608,226.596 148.000 C 226.137 148.459,226.100 149.465,226.543 149.465 C 226.718 149.465,226.904 149.592,226.955 149.747 C 227.152 150.339,232.098 150.119,232.727 149.491 C 234.176 148.041,233.313 146.013,231.123 145.723 C 230.533 145.645,230.051 145.492,230.051 145.385 C 230.051 145.277,229.823 145.185,229.544 145.181 C 229.053 145.174,229.051 145.164,229.469 144.848 C 229.726 144.653,230.000 144.600,230.145 144.716 C 230.279 144.824,230.718 144.982,231.120 145.068 C 231.522 145.154,231.851 145.318,231.851 145.432 C 231.851 145.819,232.321 145.641,232.875 145.043 C 234.088 143.735,233.220 143.077,230.147 142.974 C 227.966 142.902,227.853 142.922,227.165 143.501 M240.687 143.480 C 240.327 143.859,240.180 144.287,240.180 144.956 C 240.180 145.703,240.040 146.039,239.505 146.574 C 238.599 147.480,238.559 148.786,239.412 149.577 C 240.029 150.148,246.733 150.422,247.062 149.889 C 247.421 149.308,246.898 148.340,246.224 148.340 L 245.550 148.340 246.016 147.747 C 246.562 147.053,246.628 146.314,246.145 146.314 C 245.959 146.314,245.808 146.213,245.808 146.089 C 245.808 145.965,245.615 145.864,245.379 145.864 C 245.009 145.864,244.966 145.741,245.070 144.968 C 245.334 142.998,242.164 141.921,240.687 143.480 M253.067 143.375 C 252.788 143.607,252.560 143.908,252.560 144.043 C 252.560 144.178,252.459 144.288,252.335 144.288 C 252.212 144.288,252.110 144.669,252.110 145.135 C 252.110 146.230,252.967 147.214,253.920 147.214 C 254.287 147.214,254.586 147.316,254.586 147.440 C 254.586 147.563,254.814 147.666,255.093 147.668 C 255.838 147.672,256.612 147.913,256.612 148.141 C 256.612 148.405,254.736 148.398,254.463 148.132 C 254.010 147.693,252.646 147.611,252.257 148.000 C 251.771 148.487,251.782 149.216,252.279 149.400 C 252.496 149.480,252.745 149.654,252.834 149.787 C 253.248 150.409,257.836 150.076,258.484 149.376 C 259.314 148.481,259.327 146.314,258.502 146.314 C 258.329 146.314,258.188 146.220,258.188 146.105 C 258.188 145.990,257.631 145.827,256.950 145.742 C 256.269 145.656,255.712 145.497,255.712 145.388 C 255.712 145.278,255.487 145.189,255.212 145.189 L 254.711 145.189 255.254 144.809 C 255.638 144.539,255.822 144.506,255.885 144.696 C 255.934 144.843,256.128 144.963,256.316 144.963 C 256.503 144.963,257.004 145.128,257.428 145.329 C 258.173 145.683,258.213 145.678,258.644 145.182 C 259.117 144.636,259.250 143.613,258.847 143.613 C 258.715 143.613,258.454 143.461,258.268 143.275 C 257.729 142.736,253.741 142.813,253.067 143.375 M261.808 143.795 L 260.889 144.652 260.889 146.529 C 260.889 149.872,263.374 151.035,266.818 149.304 C 267.170 149.127,267.600 149.037,267.775 149.104 C 268.001 149.191,268.092 149.047,268.092 148.606 C 268.092 147.940,266.937 147.729,266.249 148.269 C 265.333 148.987,263.948 148.675,263.702 147.695 C 263.621 147.371,263.445 147.039,263.312 146.956 C 262.830 146.659,264.339 144.288,265.009 144.288 C 265.161 144.288,265.644 144.480,266.082 144.715 C 266.903 145.155,267.642 145.025,267.642 144.441 C 267.642 143.871,265.187 142.938,263.688 142.938 C 262.887 142.938,262.576 143.079,261.808 143.795 M270.118 146.539 L 270.118 150.141 271.356 150.141 L 272.594 150.141 272.594 146.539 L 272.594 142.938 271.356 142.938 L 270.118 142.938 270.118 146.539 M275.121 146.483 L 275.183 150.028 278.334 150.028 L 281.486 150.028 281.554 148.959 L 281.623 147.890 279.585 147.890 C 277.923 147.890,277.546 147.827,277.546 147.552 C 277.546 147.287,277.859 147.214,279.010 147.214 L 280.473 147.214 280.473 146.427 L 280.473 145.639 279.010 145.639 C 277.859 145.639,277.546 145.567,277.546 145.301 C 277.546 145.026,277.922 144.963,279.572 144.963 L 281.598 144.963 281.598 143.950 L 281.598 142.938 278.329 142.938 L 275.059 142.938 275.121 146.483 M283.450 146.483 L 283.512 150.028 284.693 150.096 L 285.875 150.164 285.875 148.562 L 285.875 146.961 287.226 148.358 C 287.968 149.127,288.576 149.842,288.576 149.948 C 288.576 150.054,289.083 150.141,289.702 150.141 L 290.827 150.141 290.827 146.539 L 290.827 142.938 289.702 142.938 L 288.576 142.938 288.576 144.401 C 288.576 145.205,288.515 145.864,288.439 145.864 C 288.234 145.864,287.234 144.878,287.230 144.671 C 287.214 143.940,285.666 142.938,284.552 142.938 L 283.388 142.938 283.450 146.483 M293.323 143.818 C 291.847 145.324,291.816 147.655,293.253 149.179 C 294.857 150.880,299.831 150.307,299.831 148.422 C 299.831 148.129,299.713 147.890,299.568 147.890 C 299.423 147.890,299.119 147.722,298.892 147.517 C 298.509 147.171,298.452 147.171,298.069 147.517 C 297.843 147.722,297.496 147.890,297.300 147.890 C 297.103 147.890,296.900 148.016,296.849 148.171 C 296.705 148.601,295.158 147.685,295.006 147.080 C 294.540 145.224,296.595 144.171,297.980 145.556 C 298.395 145.972,298.537 145.948,299.233 145.350 C 300.740 144.055,299.364 142.938,296.263 142.938 L 294.186 142.938 293.323 143.818 M301.182 146.545 L 301.182 150.153 304.502 150.090 L 307.822 150.028 307.822 149.015 L 307.822 148.002 305.853 147.937 C 303.330 147.854,302.882 147.214,305.346 147.214 L 306.809 147.214 306.809 146.427 L 306.809 145.639 305.346 145.639 C 302.882 145.639,303.330 144.999,305.853 144.916 L 307.822 144.851 307.891 143.894 L 307.961 142.938 304.571 142.938 L 301.182 142.938 301.182 146.545 M242.881 144.851 C 242.881 145.037,242.780 145.189,242.656 145.189 C 242.532 145.189,242.431 145.037,242.431 144.851 C 242.431 144.665,242.532 144.513,242.656 144.513 C 242.780 144.513,242.881 144.665,242.881 144.851 M101.169 145.464 C 101.847 146.432,101.139 148.340,100.103 148.340 C 99.572 148.340,98.818 147.243,98.818 146.470 C 98.818 145.087,100.423 144.399,101.169 145.464 M135.749 145.196 C 136.448 145.571,136.256 145.833,135.228 145.907 C 133.887 146.004,133.564 147.645,134.877 147.691 C 135.287 147.705,135.445 147.763,135.228 147.820 C 135.011 147.876,134.834 148.017,134.834 148.131 C 134.834 148.246,134.682 148.340,134.496 148.340 C 134.311 148.340,134.159 148.250,134.159 148.141 C 134.159 148.032,133.956 147.889,133.708 147.824 C 133.242 147.702,133.047 146.078,133.431 145.504 C 133.784 144.975,135.027 144.810,135.749 145.196 M157.344 145.184 C 157.838 145.496,157.798 147.468,157.288 147.978 C 157.071 148.195,156.894 148.466,156.894 148.581 C 156.894 149.030,155.925 148.757,155.301 148.132 C 154.424 147.255,154.471 146.667,155.522 145.357 C 155.864 144.931,156.802 144.841,157.344 145.184 M221.591 145.100 C 222.321 145.380,221.976 145.864,221.047 145.864 C 220.296 145.864,220.146 145.789,220.146 145.414 C 220.146 144.950,220.819 144.804,221.591 145.100 M244.313 146.652 C 244.167 147.032,243.872 147.093,243.680 146.781 C 243.609 146.667,243.730 146.527,243.948 146.470 C 244.166 146.413,244.367 146.354,244.394 146.340 C 244.421 146.326,244.385 146.466,244.313 146.652 M241.711 147.935 C 242.114 148.338,242.038 148.538,241.531 148.405 C 241.283 148.340,241.080 148.147,241.080 147.976 C 241.080 147.593,241.351 147.575,241.711 147.935 " stroke="none" fill="#241c23" fill-rule="evenodd"></path><path id="path2" d="M39.299 99.687 C 39.234 99.793,38.546 99.937,37.772 100.008 C 36.998 100.078,36.328 100.244,36.284 100.377 C 36.240 100.510,36.096 100.619,35.965 100.619 C 35.582 100.619,33.765 101.582,33.765 101.784 C 33.765 101.886,33.648 101.970,33.506 101.970 C 33.075 101.970,30.853 104.533,30.831 105.056 C 30.827 105.153,30.628 105.639,30.388 106.134 C 30.149 106.629,29.950 107.465,29.946 107.991 C 29.942 108.517,29.837 108.948,29.713 108.948 C 29.437 108.948,29.409 111.574,29.683 111.743 C 29.791 111.809,29.946 112.373,30.029 112.994 C 30.111 113.616,30.266 114.125,30.372 114.125 C 30.478 114.125,30.627 114.373,30.703 114.676 C 31.026 115.963,36.898 120.873,39.136 121.727 C 39.809 121.984,41.557 123.608,42.150 124.528 C 43.134 126.054,42.180 127.846,40.379 127.852 C 38.770 127.858,37.817 126.573,37.817 124.397 L 37.817 123.579 33.507 123.579 L 29.196 123.579 29.352 125.988 C 29.438 127.313,29.592 128.503,29.694 128.633 C 29.796 128.763,29.948 129.249,30.031 129.713 C 30.115 130.177,30.269 130.557,30.374 130.557 C 30.479 130.557,30.624 130.785,30.696 131.064 C 30.919 131.927,33.287 134.159,33.981 134.159 C 34.110 134.159,34.215 134.252,34.215 134.366 C 34.215 134.480,34.544 134.644,34.947 134.730 C 35.349 134.816,35.820 135.001,35.994 135.141 C 36.458 135.517,44.451 135.493,44.828 135.115 C 44.983 134.961,45.285 134.834,45.499 134.834 C 45.713 134.834,46.027 134.695,46.196 134.526 C 46.365 134.357,46.737 134.144,47.022 134.054 C 47.307 133.963,48.113 133.310,48.812 132.602 C 49.958 131.443,50.316 130.888,51.355 128.666 C 51.770 127.777,51.791 121.747,51.379 121.609 C 51.224 121.558,51.097 121.348,51.097 121.142 C 51.097 120.768,49.713 118.601,49.062 117.957 C 48.473 117.374,46.640 115.926,46.491 115.926 C 46.414 115.926,46.077 115.671,45.741 115.360 C 45.406 115.050,44.930 114.732,44.682 114.655 C 44.434 114.578,44.181 114.452,44.119 114.376 C 43.940 114.155,42.575 113.225,42.431 113.225 C 42.173 113.225,40.840 112.196,40.011 111.358 C 39.169 110.506,38.823 108.862,39.340 108.160 C 39.657 107.728,41.065 107.101,41.149 107.354 C 41.194 107.488,41.356 107.597,41.510 107.597 C 42.214 107.597,42.769 108.620,42.769 109.919 L 42.769 111.199 47.158 111.199 L 51.548 111.199 51.548 109.636 C 51.548 108.777,51.446 108.011,51.322 107.935 C 51.199 107.858,51.097 107.483,51.097 107.102 C 51.097 106.430,50.258 104.410,49.916 104.258 C 49.823 104.217,49.747 104.073,49.747 103.938 C 49.747 103.602,46.812 100.853,46.436 100.836 C 46.338 100.832,45.853 100.633,45.357 100.394 C 44.862 100.155,44.083 99.956,43.626 99.951 C 43.169 99.947,42.733 99.842,42.656 99.719 C 42.487 99.444,39.467 99.416,39.299 99.687 M95.584 99.670 C 95.513 99.786,94.869 99.935,94.154 100.003 C 93.438 100.070,92.549 100.286,92.178 100.483 C 91.806 100.680,91.376 100.842,91.221 100.843 C 91.066 100.843,90.940 100.934,90.940 101.045 C 90.940 101.155,90.691 101.308,90.387 101.384 C 89.759 101.542,86.888 104.196,86.888 104.619 C 86.888 104.771,86.789 104.896,86.667 104.896 C 86.546 104.896,86.378 105.174,86.295 105.515 C 86.212 105.855,86.058 106.190,85.955 106.259 C 85.851 106.327,85.707 106.884,85.634 107.497 C 85.561 108.109,85.405 108.813,85.286 109.061 C 84.978 109.706,85.169 125.820,85.504 127.463 C 85.933 129.558,88.353 133.258,89.296 133.258 C 89.402 133.258,89.663 133.461,89.875 133.708 C 90.087 133.956,90.464 134.159,90.712 134.159 C 90.961 134.159,91.165 134.252,91.165 134.366 C 91.165 134.480,91.494 134.645,91.896 134.732 C 92.299 134.819,92.700 135.004,92.789 135.144 C 93.010 135.493,101.326 135.495,101.766 135.146 C 101.940 135.009,102.361 134.830,102.701 134.748 C 103.042 134.667,103.320 134.501,103.320 134.380 C 103.320 134.258,103.452 134.159,103.612 134.159 C 104.771 134.159,107.822 130.344,107.822 128.895 C 107.822 128.709,107.923 128.495,108.047 128.419 C 108.181 128.336,108.272 126.916,108.272 124.916 L 108.272 121.553 103.883 121.553 L 99.494 121.553 99.490 123.748 C 99.487 126.560,99.409 126.807,98.388 127.257 C 97.206 127.779,96.935 127.735,96.021 126.873 L 95.217 126.115 95.220 117.812 C 95.223 108.554,95.204 108.755,96.148 108.213 C 98.330 106.960,99.494 108.080,99.494 111.433 L 99.494 113.900 103.883 113.900 L 108.272 113.900 108.269 110.692 C 108.267 108.412,108.166 107.192,107.921 106.472 C 107.406 104.957,106.927 103.995,106.686 103.995 C 106.568 103.995,106.472 103.856,106.472 103.685 C 106.472 103.514,105.940 102.905,105.290 102.331 C 103.625 100.860,103.652 100.879,102.946 100.706 C 102.594 100.620,102.251 100.465,102.183 100.362 C 101.880 99.904,95.831 99.270,95.584 99.670 M123.486 99.687 C 123.421 99.793,122.773 99.934,122.046 100.000 C 121.320 100.066,120.532 100.227,120.295 100.358 C 120.059 100.490,119.485 100.766,119.021 100.971 C 118.557 101.177,118.177 101.419,118.177 101.509 C 118.177 101.600,117.526 102.337,116.730 103.149 C 115.934 103.960,115.063 105.065,114.793 105.604 C 114.524 106.143,114.097 106.748,113.844 106.947 C 113.300 107.377,112.938 111.671,113.421 111.969 C 113.751 112.173,113.763 115.025,113.434 115.025 C 113.099 115.025,113.243 127.797,113.585 128.419 C 113.721 128.666,114.076 129.365,114.373 129.972 C 115.405 132.081,117.530 133.863,120.315 134.955 C 121.897 135.576,128.937 135.608,129.994 135.000 C 130.366 134.786,130.796 134.611,130.951 134.610 C 131.106 134.610,131.232 134.519,131.232 134.408 C 131.232 134.298,131.461 134.150,131.740 134.080 C 132.878 133.794,134.898 131.403,134.984 130.240 C 135.056 129.249,135.726 126.658,135.975 126.404 C 136.090 126.286,136.185 125.147,136.185 123.872 L 136.185 121.553 133.177 121.553 C 131.523 121.553,129.700 121.618,129.125 121.696 L 128.081 121.839 128.081 123.132 C 128.081 124.006,127.972 124.515,127.743 124.705 C 127.558 124.859,127.406 125.257,127.406 125.589 C 127.406 127.058,125.556 128.042,124.303 127.240 C 123.326 126.616,123.144 126.247,123.136 124.887 C 123.132 124.182,123.028 123.543,122.904 123.467 C 122.780 123.390,122.679 122.574,122.679 121.652 C 122.679 120.686,122.774 119.977,122.904 119.977 C 123.048 119.977,123.129 118.015,123.129 114.539 L 123.129 109.100 123.845 108.461 C 124.564 107.819,126.280 107.527,126.280 108.047 C 126.280 108.171,126.435 108.272,126.623 108.272 C 127.175 108.272,127.406 109.272,127.406 111.664 L 127.406 113.900 131.795 113.900 L 136.185 113.900 136.185 110.537 C 136.185 108.687,136.092 107.116,135.979 107.046 C 135.866 106.977,135.705 106.515,135.622 106.020 C 135.538 105.526,135.398 105.121,135.310 105.121 C 135.222 105.121,135.021 104.766,134.865 104.333 C 134.708 103.900,134.485 103.545,134.369 103.545 C 134.253 103.545,134.159 103.444,134.159 103.320 C 134.159 102.915,132.185 101.294,131.692 101.294 C 131.563 101.294,131.458 101.204,131.458 101.094 C 131.458 100.983,131.180 100.823,130.841 100.738 C 130.502 100.653,130.161 100.482,130.084 100.358 C 130.008 100.233,129.320 100.075,128.556 100.006 C 127.793 99.937,127.114 99.793,127.048 99.687 C 126.983 99.580,126.181 99.494,125.267 99.494 C 124.353 99.494,123.552 99.580,123.486 99.687 M177.040 99.719 C 176.963 99.842,176.482 99.944,175.970 99.944 C 173.812 99.944,170.109 102.501,168.936 104.802 C 168.689 105.287,168.408 105.742,168.311 105.813 C 168.215 105.884,168.075 106.467,167.999 107.108 C 167.923 107.748,167.774 108.272,167.667 108.272 C 167.413 108.272,167.415 112.036,167.669 112.193 C 167.776 112.260,167.928 112.713,168.006 113.201 C 168.084 113.688,168.224 114.121,168.317 114.162 C 168.410 114.204,168.689 114.637,168.936 115.126 C 169.377 115.995,172.110 118.852,172.501 118.852 C 172.609 118.852,173.082 119.156,173.551 119.527 C 174.020 119.899,174.456 120.203,174.520 120.203 C 174.585 120.203,175.175 120.557,175.833 120.990 C 176.491 121.424,177.108 121.778,177.204 121.778 C 177.299 121.778,177.563 121.956,177.790 122.172 C 178.017 122.389,178.549 122.875,178.972 123.252 C 180.126 124.281,181.024 126.280,180.332 126.280 C 180.224 126.280,180.077 126.571,180.006 126.926 C 179.865 127.632,179.400 127.848,178.013 127.853 C 176.722 127.858,175.802 126.620,175.802 124.878 L 175.802 123.579 171.492 123.579 L 167.181 123.579 167.309 126.179 C 167.380 127.609,167.535 128.901,167.654 129.049 C 167.774 129.198,167.942 129.648,168.028 130.051 C 168.114 130.453,168.271 130.782,168.376 130.782 C 168.482 130.782,168.637 130.997,168.720 131.260 C 168.922 131.896,171.054 133.917,171.694 134.079 C 171.972 134.150,172.200 134.298,172.200 134.408 C 172.200 134.519,172.327 134.610,172.482 134.610 C 172.636 134.611,173.067 134.784,173.438 134.996 C 174.465 135.580,181.821 135.576,183.118 134.991 C 185.069 134.110,185.534 133.801,186.792 132.543 C 188.072 131.263,187.918 131.512,189.395 128.328 C 189.727 127.612,189.727 122.401,189.395 121.982 C 189.257 121.808,189.076 121.378,188.992 121.027 C 188.833 120.364,188.706 120.173,187.676 119.057 C 187.335 118.688,187.057 118.314,187.057 118.225 C 187.057 117.984,185.099 116.375,183.568 115.359 C 182.825 114.866,182.167 114.405,182.105 114.335 C 182.043 114.265,181.435 113.889,180.754 113.500 C 177.633 111.714,176.369 109.959,177.176 108.529 C 177.530 107.901,178.950 107.021,179.156 107.301 C 179.230 107.402,179.494 107.596,179.741 107.732 C 180.400 108.094,180.747 108.917,180.751 110.129 L 180.754 111.199 184.943 111.199 L 189.131 111.199 189.033 108.666 C 188.963 106.874,188.825 105.936,188.560 105.459 C 188.354 105.087,188.184 104.657,188.184 104.502 C 188.183 104.347,188.078 104.221,187.950 104.221 C 187.822 104.221,187.656 104.043,187.580 103.827 C 187.112 102.484,183.188 99.944,181.584 99.944 C 181.142 99.944,180.718 99.842,180.642 99.719 C 180.565 99.595,179.755 99.494,178.841 99.494 C 177.927 99.494,177.116 99.595,177.040 99.719 M203.846 99.687 C 203.781 99.793,203.102 99.937,202.338 100.006 C 201.575 100.075,200.888 100.229,200.813 100.347 C 200.737 100.466,200.346 100.634,199.944 100.721 C 199.541 100.808,199.211 100.948,199.211 101.031 C 199.210 101.114,198.831 101.435,198.368 101.745 C 196.741 102.834,194.935 105.305,194.935 106.441 C 194.935 106.685,194.809 106.926,194.654 106.978 C 194.182 107.135,194.281 112.704,194.772 113.562 C 194.984 113.934,195.158 114.364,195.159 114.519 C 195.160 114.674,195.255 114.800,195.370 114.800 C 195.486 114.800,195.651 115.023,195.738 115.296 C 196.095 116.422,200.418 119.918,203.452 121.535 C 207.381 123.628,208.391 127.856,204.962 127.856 C 203.376 127.856,202.738 127.120,202.627 125.162 L 202.538 123.579 198.174 123.579 L 193.810 123.579 193.810 125.479 C 193.810 126.524,193.898 127.434,194.005 127.500 C 194.113 127.566,194.268 128.129,194.351 128.751 C 194.433 129.373,194.598 129.882,194.718 129.882 C 194.837 129.882,194.935 130.077,194.935 130.316 C 194.935 130.555,195.087 130.902,195.273 131.088 C 195.459 131.273,195.611 131.526,195.611 131.649 C 195.611 131.961,198.113 134.159,198.469 134.159 C 198.630 134.159,198.762 134.260,198.762 134.384 C 198.762 134.508,198.939 134.610,199.156 134.610 C 199.373 134.611,199.854 134.786,200.225 134.999 C 201.228 135.575,208.902 135.575,209.904 134.999 C 210.276 134.786,210.706 134.611,210.861 134.610 C 211.016 134.610,211.142 134.508,211.142 134.384 C 211.142 134.260,211.248 134.159,211.377 134.159 C 212.255 134.159,215.419 130.692,215.419 129.730 C 215.419 129.586,215.531 129.432,215.666 129.387 C 215.802 129.341,215.968 128.824,216.034 128.237 C 216.100 127.650,216.242 127.116,216.349 127.050 C 216.605 126.892,216.604 122.904,216.349 122.904 C 216.242 122.904,216.098 122.484,216.029 121.971 C 215.960 121.458,215.808 120.977,215.692 120.902 C 215.575 120.827,215.417 120.563,215.340 120.315 C 215.262 120.068,214.945 119.591,214.634 119.256 C 214.323 118.921,214.069 118.541,214.069 118.412 C 214.069 118.282,213.993 118.176,213.900 118.175 C 213.807 118.174,213.275 117.723,212.718 117.172 C 212.161 116.622,211.594 116.167,211.459 116.161 C 211.323 116.155,211.029 115.948,210.805 115.701 C 210.581 115.453,210.270 115.250,210.113 115.250 C 209.957 115.250,209.796 115.174,209.754 115.082 C 209.665 114.880,208.292 113.900,208.100 113.900 C 207.724 113.900,205.234 111.993,204.518 111.157 C 203.478 109.941,203.339 109.383,203.861 108.500 C 205.119 106.370,207.541 107.491,207.541 110.204 L 207.541 111.199 211.851 111.199 L 216.161 111.199 216.031 109.027 C 215.960 107.833,215.808 106.795,215.693 106.720 C 215.578 106.645,215.414 106.204,215.329 105.740 C 215.244 105.276,215.077 104.896,214.959 104.896 C 214.841 104.896,214.744 104.790,214.744 104.662 C 214.744 104.051,212.550 101.646,211.761 101.391 C 211.545 101.321,211.367 101.180,211.367 101.078 C 211.367 100.976,211.090 100.823,210.751 100.738 C 210.411 100.653,210.073 100.484,209.998 100.363 C 209.923 100.243,209.286 100.084,208.582 100.011 C 207.878 99.939,207.249 99.793,207.183 99.686 C 207.028 99.435,204.002 99.435,203.846 99.687 M56.997 114.519 C 57.060 127.818,57.082 128.458,57.506 129.319 C 58.226 130.782,59.145 132.040,60.046 132.793 C 61.364 133.897,61.380 133.907,61.995 134.061 C 62.315 134.142,62.577 134.298,62.577 134.408 C 62.577 134.519,62.704 134.610,62.859 134.610 C 63.014 134.611,63.444 134.785,63.815 134.997 C 64.642 135.468,72.172 135.591,72.728 135.141 C 72.902 135.001,73.374 134.816,73.776 134.730 C 74.178 134.644,74.508 134.491,74.508 134.390 C 74.508 134.290,74.738 134.150,75.020 134.079 C 76.521 133.702,79.125 130.297,79.389 128.366 C 79.463 127.831,79.610 127.340,79.716 127.274 C 79.823 127.208,79.910 121.184,79.910 113.887 L 79.910 100.619 75.070 100.619 L 70.231 100.619 70.228 113.618 L 70.225 126.618 69.412 127.145 C 68.614 127.662,68.586 127.664,67.854 127.270 C 66.818 126.713,66.861 127.308,66.857 113.281 L 66.854 100.619 61.892 100.619 L 56.931 100.619 56.997 114.519 M141.812 116.480 C 141.812 130.791,141.850 132.462,142.196 133.587 L 142.580 134.834 152.325 134.834 L 162.071 134.834 162.071 130.694 C 162.071 125.742,162.731 126.280,156.650 126.280 L 151.941 126.280 151.941 123.579 L 151.941 120.878 155.069 120.878 C 158.791 120.878,158.469 121.241,158.469 117.033 L 158.469 113.900 155.205 113.900 L 151.941 113.900 151.941 111.199 L 151.941 108.497 157.006 108.497 L 162.071 108.497 162.071 104.558 L 162.071 100.619 151.941 100.619 L 141.812 100.619 141.812 116.480 M208.844 168.461 C 208.632 168.619,208.391 169.170,208.309 169.686 C 208.226 170.202,208.083 170.625,207.991 170.625 C 207.899 170.625,207.761 171.016,207.684 171.495 C 207.608 171.974,207.393 172.658,207.207 173.015 C 207.021 173.372,206.868 173.936,206.867 174.269 C 206.866 174.602,206.775 174.931,206.665 174.999 C 206.555 175.067,206.398 175.402,206.315 175.744 C 206.233 176.085,206.045 176.643,205.898 176.984 L 205.630 177.603 200.971 177.603 C 195.932 177.603,195.636 177.678,196.907 178.639 C 197.370 178.988,197.863 179.380,198.003 179.508 C 198.142 179.636,198.484 179.893,198.761 180.079 C 199.038 180.264,199.916 180.898,200.712 181.486 C 201.508 182.074,202.256 182.555,202.374 182.555 C 202.492 182.555,202.589 182.659,202.589 182.787 C 202.589 182.915,202.766 183.086,202.983 183.168 C 203.470 183.353,204.050 183.905,203.756 183.905 C 203.637 183.905,203.472 184.359,203.389 184.913 C 203.306 185.467,203.151 185.974,203.045 186.040 C 202.940 186.105,202.785 186.563,202.701 187.058 C 202.617 187.553,202.466 187.957,202.365 187.957 C 202.264 187.957,202.111 188.464,202.026 189.083 C 201.941 189.702,201.796 190.208,201.705 190.208 C 201.614 190.208,201.434 190.639,201.306 191.165 C 201.178 191.691,200.998 192.299,200.906 192.515 C 200.504 193.466,202.168 192.734,204.099 191.112 C 204.248 190.986,204.479 190.884,204.612 190.884 C 204.745 190.884,204.912 190.732,204.983 190.546 C 205.055 190.360,205.202 190.208,205.312 190.208 C 205.518 190.208,207.566 188.707,207.766 188.410 C 207.828 188.318,208.106 188.172,208.385 188.085 C 208.663 187.998,208.891 187.832,208.891 187.717 C 208.891 187.364,209.205 187.480,209.841 188.070 C 210.174 188.379,210.556 188.633,210.689 188.633 C 210.823 188.633,210.990 188.784,211.061 188.970 C 211.132 189.156,211.324 189.308,211.488 189.308 C 211.652 189.308,211.953 189.476,212.158 189.681 C 212.364 189.886,213.207 190.538,214.032 191.130 C 214.857 191.722,215.692 192.364,215.888 192.558 C 216.519 193.180,217.220 193.010,217.220 192.234 C 217.220 191.863,217.128 191.559,217.015 191.559 C 216.902 191.559,216.741 191.154,216.657 190.660 C 216.574 190.165,216.425 189.710,216.326 189.649 C 216.227 189.588,216.078 189.081,215.994 188.523 C 215.910 187.964,215.758 187.507,215.656 187.507 C 215.553 187.507,215.398 187.127,215.312 186.663 C 215.225 186.199,215.073 185.718,214.974 185.594 C 214.210 184.635,214.479 183.557,215.678 182.780 C 216.329 182.358,217.025 181.857,217.225 181.665 C 217.735 181.176,218.972 180.304,219.155 180.304 C 219.238 180.304,219.542 180.051,219.828 179.741 C 220.115 179.432,220.431 179.177,220.529 179.175 C 220.843 179.169,222.167 177.897,222.016 177.747 C 221.937 177.668,219.759 177.603,217.175 177.603 C 212.899 177.603,212.468 177.567,212.357 177.209 C 212.290 176.992,212.154 176.660,212.055 176.470 C 211.956 176.280,211.799 175.777,211.705 175.352 C 211.612 174.927,211.460 174.423,211.368 174.234 C 211.276 174.044,210.970 173.129,210.689 172.200 C 209.620 168.675,209.335 168.096,208.844 168.461 " stroke="none" fill="#cc1444" fill-rule="evenodd"></path><path id="path3" d="M116.669 102.926 C 115.368 104.252,113.751 106.623,113.987 106.859 C 114.046 106.918,114.365 106.433,114.695 105.781 C 115.026 105.129,115.818 104.073,116.455 103.434 C 117.699 102.187,118.287 101.519,118.141 101.519 C 118.092 101.519,117.429 102.153,116.669 102.926 M113.225 113.436 C 113.225 114.346,113.321 115.025,113.450 115.025 C 113.576 115.025,113.675 114.392,113.675 113.575 C 113.675 112.778,113.573 112.063,113.450 111.986 C 113.308 111.899,113.225 112.434,113.225 113.436 M122.679 121.652 C 122.679 122.574,122.755 123.374,122.847 123.432 C 122.940 123.489,123.016 122.735,123.016 121.757 C 123.016 120.778,122.940 119.977,122.847 119.977 C 122.755 119.977,122.679 120.731,122.679 121.652 M127.631 123.255 C 127.631 124.182,127.715 124.679,127.856 124.592 C 127.980 124.515,128.081 123.851,128.081 123.116 C 128.081 122.374,127.981 121.778,127.856 121.778 C 127.729 121.778,127.631 122.420,127.631 123.255 M135.885 126.444 C 135.819 126.551,135.619 127.242,135.441 127.979 C 135.263 128.716,135.052 129.522,134.972 129.769 C 134.892 130.017,135.028 129.814,135.275 129.319 C 135.521 128.824,135.725 128.184,135.728 127.897 C 135.732 127.611,135.844 127.172,135.978 126.921 C 136.213 126.483,136.128 126.050,135.885 126.444 " stroke="none" fill="#d56d82" fill-rule="evenodd"></path><path id="path4" d="M267.980 100.169 C 267.546 100.355,267.547 100.363,268.023 100.378 C 268.294 100.387,268.579 100.293,268.655 100.169 C 268.820 99.903,268.599 99.903,267.980 100.169 M274.170 100.102 C 274.170 100.205,275.369 100.711,276.196 100.958 C 276.505 101.050,276.685 101.047,276.594 100.952 C 276.404 100.751,274.170 99.968,274.170 100.102 M265.841 100.864 C 265.150 101.167,265.035 101.267,265.479 101.177 C 266.324 101.005,267.630 100.432,267.192 100.425 C 267.006 100.422,266.398 100.619,265.841 100.864 M279.122 102.311 C 279.122 102.370,279.629 103.046,280.248 103.814 C 280.867 104.582,281.373 105.292,281.373 105.391 C 281.373 105.490,281.481 105.571,281.614 105.571 C 281.746 105.571,281.626 105.242,281.347 104.840 C 280.793 104.039,279.122 102.140,279.122 102.311 M260.214 106.472 C 260.062 107.104,259.989 107.672,260.051 107.734 C 260.112 107.796,260.287 107.329,260.439 106.697 C 260.591 106.064,260.664 105.496,260.602 105.434 C 260.540 105.372,260.366 105.839,260.214 106.472 M270.717 107.541 C 270.660 107.634,271.008 107.715,271.491 107.721 C 272.603 107.734,272.875 108.016,273.060 109.343 L 273.209 110.411 273.239 109.444 C 273.284 108.013,271.330 106.539,270.717 107.541 M259.808 109.539 C 259.784 110.421,259.713 111.484,259.652 111.902 L 259.540 112.662 259.774 111.918 C 259.903 111.509,259.973 110.445,259.931 109.554 L 259.853 107.935 259.808 109.539 M269.143 109.098 C 268.935 109.306,268.953 114.125,269.162 114.125 C 269.254 114.125,269.330 112.960,269.330 111.536 C 269.330 110.113,269.322 108.948,269.312 108.948 C 269.301 108.948,269.225 109.015,269.143 109.098 M272.992 121.609 C 273.089 126.756,273.185 127.169,273.229 122.622 C 273.251 120.301,273.194 118.402,273.101 118.401 C 273.008 118.401,272.959 119.845,272.992 121.609 M259.651 121.778 C 259.651 122.868,259.727 123.714,259.820 123.656 C 259.913 123.599,259.989 122.754,259.989 121.778 C 259.989 120.802,259.913 119.957,259.820 119.900 C 259.727 119.842,259.651 120.687,259.651 121.778 M269.675 127.097 C 269.650 128.010,271.878 128.239,272.670 127.404 L 273.157 126.890 272.600 127.261 C 271.839 127.767,270.212 127.753,269.911 127.237 C 269.785 127.020,269.679 126.957,269.675 127.097 M270.062 135.449 C 270.588 135.496,271.449 135.496,271.975 135.449 C 272.501 135.402,272.071 135.363,271.019 135.363 C 269.966 135.363,269.536 135.402,270.062 135.449 M145.412 143.264 C 145.721 143.435,146.040 143.811,146.121 144.100 C 146.261 144.597,146.270 144.591,146.292 144.001 C 146.309 143.527,146.175 143.324,145.737 143.157 C 144.916 142.845,144.753 142.899,145.412 143.264 M265.616 143.253 C 267.553 143.914,268.094 144.463,267.264 144.928 C 266.998 145.076,266.633 145.007,266.035 144.696 C 265.527 144.431,264.999 144.311,264.725 144.398 C 264.054 144.611,264.163 144.921,264.863 144.787 C 265.206 144.721,265.769 144.840,266.188 145.065 C 266.907 145.452,268.092 145.114,268.092 144.522 C 268.092 144.026,266.050 142.913,265.230 142.961 C 265.009 142.974,265.183 143.106,265.616 143.253 M152.789 145.766 C 152.312 148.425,154.145 150.223,157.198 150.091 C 159.175 150.005,158.861 149.713,156.833 149.751 C 154.148 149.803,153.260 149.018,153.069 146.427 C 152.959 144.935,152.944 144.900,152.789 145.766 M154.793 146.464 C 154.461 146.796,154.678 147.510,155.301 148.132 C 155.936 148.767,156.894 149.027,156.894 148.565 C 156.894 148.441,156.602 148.340,156.246 148.340 C 155.452 148.340,155.070 147.915,155.044 147.005 C 155.023 146.256,155.016 146.241,154.793 146.464 M266.192 148.009 C 265.952 148.191,265.395 148.341,264.954 148.343 C 264.364 148.346,264.242 148.403,264.489 148.559 C 264.873 148.802,265.752 148.636,266.389 148.200 C 266.629 148.036,267.084 147.958,267.402 148.027 C 267.853 148.124,267.906 148.099,267.642 147.911 C 267.182 147.584,266.712 147.616,266.192 148.009 M266.855 149.290 C 266.607 149.433,265.847 149.673,265.166 149.823 C 263.956 150.088,263.948 150.095,264.828 150.110 C 265.346 150.118,266.208 149.894,266.854 149.583 C 267.473 149.285,267.828 149.038,267.642 149.035 C 267.456 149.032,267.102 149.146,266.855 149.290 " stroke="none" fill="#84847c" fill-rule="evenodd"></path></g></svg>