<?xml version="1.0" encoding="utf-8"?>
<!-- Generator: Adobe Illustrator 19.0.0, SVG Export Plug-In . SVG Version: 6.00 Build 0)  -->
<svg version="1.1" id="Layer_0_xA0_Image_1_" xmlns="http://www.w3.org/2000/svg" xmlns:xlink="http://www.w3.org/1999/xlink"
	 x="0px" y="0px" viewBox="0 0 727.5 511.5" style="enable-background:new 0 0 727.5 511.5;" xml:space="preserve">
<style type="text/css">
	.st0{stroke:#000000;stroke-width:3;}
	.st1{fill:#C5050C;stroke:#C5050C;stroke-width:3;}
	.st2{fill:#646569;stroke:#646569;stroke-width:3;}
	.st3{fill:#C5050C;}
</style>
<g>
	<path d="M419.3,326c-12.4,0-24.7,0-37.1,0c-2.7,0-3.7-0.9-2.9-3.6c2.8-9.4,5.7-18.7,8.4-28.1c8.6-29.7,17.1-59.5,25.8-89.2
		c3.7-12.6,7.9-25,11.6-37.5c5.6-19,11.1-38.1,16.5-57.1c5.3-18.5,10.3-37,15.6-55.5c4.1-14.4,8.3-28.8,12.7-43.2
		c0.3-1.1,2.1-2.5,3.2-2.5c25.1-0.1,50.2-0.1,75.4-0.1c2.4,0,3.1,1,2.4,3.3c-3.7,12.1-7.4,24.2-10.9,36.3
		c-3.2,10.8-6.1,21.7-9.2,32.6c-3.9,13.3-7.8,26.6-11.8,39.9c-4.9,16.6-9.9,33.2-14.8,49.9c-5.6,19.2-11.2,38.5-16.8,57.8
		c-4.2,14.7-8.5,29.3-12.7,44c-4.4,15.5-8.7,31-13.1,46.4c-0.3,1.1-1,2.1-1.1,3.1c-0.2,3.3-2.2,3.6-4.9,3.6
		C443.5,326,431.4,326,419.3,326z"/>
	<path d="M520.9,326c-12,0-24,0-36,0c-4.8,0-4.8-0.1-3.4-5.2c3.7-12.8,7.4-25.7,11.2-38.6c4.2-14.4,8.3-28.8,12.6-43.2
		c3.9-13.2,8.2-26.3,12.1-39.4c4-13.5,7.7-27.1,11.6-40.6c3.7-13.1,7.5-26.1,11.2-39.2c4.6-16.1,9.1-32.2,13.8-48.2
		c3.7-12.9,7.7-25.6,11.5-38.5c2.1-7.1,4.1-14.3,5.9-21.5c0.5-2,1.5-2.5,3.4-2.5c25.1,0,50.2,0,75.3,0c2.4,0,3.1,0.9,2.4,3.2
		c-5.3,17.6-10.6,35.1-15.7,52.7c-5.3,18.2-10.3,36.5-15.6,54.7c-3,10.3-6.6,20.5-9.6,30.9c-3.9,13.3-7.5,26.7-11.3,40
		c-4.2,14.8-8.5,29.5-12.8,44.2c-5.3,18.2-10.8,36.3-16.1,54.6c-3,10.3-5.8,20.7-8.6,31.1c-1.4,5.1-1.8,5.5-7.1,5.5
		C544.2,326,532.5,326,520.9,326z"/>
</g>
<g>
	<path class="st0" d="M19.4,503.8l-12.2-64h11.9l8.4,46.2l9.9-39.3H45l11.8,39.1c0.9-6.8,1.7-12.5,2.4-17c0.7-4.5,1.1-8.4,1.4-11.4
		s0.5-5.7,0.6-7.9c0.1-2.2,0.1-4.3,0.1-6.4v-3.2h12.2c-0.7,6.9-1.5,14-2.5,21.2c-1,7.3-2.2,14.5-3.5,21.7c-1.3,7.2-2.7,14.2-4.1,21
		H51.1L41.1,467l-9.4,36.8H19.4z"/>
	<path class="st0" d="M115.3,505c-4.7,0-9-0.7-12.9-2.2s-7.3-3.6-10.1-6.4c-2.8-2.8-5.1-6.2-6.7-10.4c-1.6-4.1-2.4-8.8-2.4-14
		c0-5.3,0.8-10,2.4-14.2c1.6-4.2,3.8-7.7,6.5-10.5c2.8-2.8,6-5,9.7-6.6c3.7-1.6,7.6-2.3,11.8-2.3c3.6,0,7.1,0.6,10.4,1.9
		c3.3,1.3,6.2,3.2,8.7,5.7c2.5,2.5,4.4,5.7,5.9,9.6c1.4,3.9,2.2,8.4,2.2,13.5c0,0.9,0,2,0,3.1c0,1.2,0,2.1-0.1,3h-44
		c0.2,3.2,0.8,6,2,8.4c1.1,2.4,2.5,4.3,4.3,5.8c1.7,1.5,3.7,2.6,6,3.3c2.2,0.7,4.6,1.1,7,1.1c2.1,0,4.1-0.2,6-0.6
		c1.8-0.4,3.6-1.1,5.3-2c1.7-0.9,3.2-2.2,4.6-3.8l7.3,7.1c-2,2.3-4.2,4.3-6.6,5.8c-2.4,1.5-5.1,2.7-7.9,3.4
		C121.6,504.6,118.6,505,115.3,505z M97,464.8h30.2c0-2.5-0.3-4.7-1-6.6c-0.7-1.9-1.6-3.5-2.9-4.9c-1.3-1.4-2.8-2.4-4.6-3
		c-1.8-0.7-3.7-1-5.9-1c-2.1,0-3.9,0.3-5.7,0.9c-1.7,0.6-3.3,1.6-4.7,2.8c-1.4,1.3-2.6,2.9-3.6,4.8C98,459.8,97.4,462.1,97,464.8z"
		/>
	<path class="st0" d="M180.8,503.9c-2.2-0.7-4.2-1.7-6.2-3.1c-1.9-1.4-3.6-3-5.1-5l-2.9,8h-10.1v-93.1h14h1.3v1.3
		c-0.5,0.6-0.8,1.2-0.9,1.8c-0.1,0.7-0.2,1.8-0.2,3.4v31c0.9-1.5,2.1-2.8,3.4-4c1.3-1.2,2.7-2.2,4.3-3.1c1.5-0.9,3.2-1.6,4.9-2
		c1.7-0.5,3.4-0.7,5.1-0.7c3.9,0.1,7.5,0.8,10.7,2.1c3.2,1.3,6,3.3,8.3,6c2.3,2.7,4.1,6.1,5.4,10.1c1.3,4,1.9,8.7,1.9,14.1
		c0,5.8-0.7,10.8-2.2,15.1c-1.4,4.3-3.4,7.9-6,10.7c-2.5,2.8-5.4,4.9-8.7,6.3c-3.3,1.4-6.7,2.1-10.2,2.1
		C185.2,505,183,504.6,180.8,503.9z M191,492.7c1.8-0.7,3.5-1.9,4.9-3.7c1.4-1.7,2.6-4,3.4-6.8c0.8-2.8,1.3-6.2,1.3-10.2
		c0-3.7-0.4-7-1-9.8c-0.7-2.8-1.7-5.2-3-7.1c-1.3-1.9-2.9-3.4-4.8-4.3c-1.9-0.9-4-1.4-6.2-1.4c-3.1,0-5.7,0.9-7.9,2.7
		c-2.2,1.8-3.9,4.4-5.1,7.7c-1.2,3.3-1.8,7.2-1.8,11.7c0,3.5,0.3,6.7,0.8,9.4c0.6,2.8,1.4,5.1,2.6,7c1.2,1.9,2.7,3.3,4.5,4.3
		c1.8,1,4,1.5,6.6,1.5C187.2,493.8,189.2,493.4,191,492.7z"/>
	<path class="st1" d="M242.9,502.8c-3.2-1.4-6.1-3.5-8.6-6.2s-4.5-6.2-5.9-10.5c-1.4-4.3-2.2-9.2-2.2-14.7c0-5.7,0.7-10.6,2.2-14.7
		c1.4-4.1,3.4-7.5,5.9-10.2c2.5-2.7,5.4-4.7,8.7-6c3.3-1.3,6.7-2,10.2-2c2.5,0,4.8,0.3,6.9,1c2.1,0.7,4,1.6,5.7,2.9
		c1.7,1.3,3,2.9,4.1,4.9v-36.5h13.6h1.3v1.3c-0.5,0.6-0.8,1.2-1,1.8c-0.2,0.6-0.2,1.8-0.1,3.3v77.7c0,1.5,0.1,3,0.2,4.5
		s0.5,3,1.2,4.5h-13.7c-0.5-1.1-0.8-2.1-1-2.9c-0.2-0.9-0.3-1.8-0.3-2.7s0-1.8,0-2.8c-1.3,2-2.8,3.7-4.5,5.1
		c-1.7,1.4-3.6,2.5-5.7,3.3c-2.1,0.7-4.4,1.1-6.9,1.1C249.5,505,246.1,504.3,242.9,502.8z M261.8,492c1.8-1,3.2-2.4,4.3-4.3
		c1.1-1.9,2-4.2,2.5-6.9c0.6-2.7,0.8-5.8,0.8-9.2c0-4.6-0.5-8.6-1.5-11.9c-1-3.3-2.6-5.8-4.8-7.6c-2.2-1.8-5-2.6-8.3-2.6
		c-2.4,0-4.6,0.5-6.4,1.5c-1.9,1-3.4,2.4-4.7,4.3c-1.3,1.9-2.2,4.1-2.9,6.7c-0.7,2.6-1,5.6-1,8.8c0,4.6,0.7,8.6,2,12.1
		c1.4,3.4,3.2,6.1,5.5,7.9c2.3,1.9,5,2.8,8,2.8C257.8,493.5,260,493,261.8,492z"/>
	<path class="st1" d="M330.8,505c-4.7,0-9-0.7-12.9-2.2s-7.3-3.6-10.1-6.4c-2.8-2.8-5.1-6.2-6.7-10.4c-1.6-4.1-2.4-8.8-2.4-14
		c0-5.3,0.8-10,2.4-14.2c1.6-4.2,3.8-7.7,6.5-10.5c2.8-2.8,6-5,9.7-6.6c3.7-1.6,7.6-2.3,11.8-2.3c3.6,0,7.1,0.6,10.4,1.9
		c3.3,1.3,6.2,3.2,8.7,5.7c2.5,2.5,4.4,5.7,5.9,9.6c1.4,3.9,2.2,8.4,2.2,13.5c0,0.9,0,2,0,3.1c0,1.2,0,2.1-0.1,3h-44
		c0.2,3.2,0.8,6,2,8.4c1.1,2.4,2.5,4.3,4.3,5.8c1.7,1.5,3.7,2.6,6,3.3c2.2,0.7,4.6,1.1,7,1.1c2.1,0,4.1-0.2,6-0.6
		c1.8-0.4,3.6-1.1,5.3-2c1.7-0.9,3.2-2.2,4.6-3.8l7.3,7.1c-2,2.3-4.2,4.3-6.6,5.8c-2.4,1.5-5.1,2.7-7.9,3.4
		C337.1,504.6,334,505,330.8,505z M312.4,464.8h30.2c0-2.5-0.3-4.7-1-6.6c-0.7-1.9-1.6-3.5-2.9-4.9c-1.3-1.4-2.8-2.4-4.6-3
		c-1.8-0.7-3.7-1-5.9-1c-2.1,0-3.9,0.3-5.7,0.9c-1.7,0.6-3.3,1.6-4.7,2.8c-1.4,1.3-2.6,2.9-3.6,4.8
		C313.5,459.8,312.8,462.1,312.4,464.8z"/>
	<path class="st1" d="M393.9,503.8l-24.6-64h14.4l17.9,48.1h-2.1l9.7-22.5c1.9-4.7,3.4-9.2,4.6-13.4c1.2-4.2,2-8.3,2.4-12.2h13
		c-0.6,4.1-1.6,8.4-3.2,12.9s-3.3,9.3-5.4,14.2L405,503.8H393.9z"/>
	<path class="st2" d="M462.6,502.6c-4.1-1.6-7.6-3.9-10.5-6.9c-2.9-3-5.2-6.5-6.9-10.5c-1.6-4-2.5-8.4-2.5-13.1
		c0-4.8,0.8-9.2,2.5-13.3c1.6-4.1,3.9-7.6,6.9-10.7c2.9-3,6.4-5.4,10.5-7.1c4.1-1.7,8.4-2.5,13.1-2.5c5.8,0,10.8,1.1,15.2,3.2
		c4.3,2.1,7.9,5.2,10.6,9.1l-8,8.4l-1,1l-0.8-0.8c-0.1-0.7-0.3-1.5-0.5-2.2c-0.2-0.7-0.9-1.7-1.9-2.9c-1.9-1.7-3.9-2.9-6.2-3.6
		s-4.8-1-7.7-1c-2.4,0-4.7,0.5-6.9,1.5c-2.2,1-4.2,2.5-5.9,4.4c-1.7,1.9-3.1,4.2-4.1,7c-1,2.7-1.5,5.8-1.5,9.1
		c0,3.3,0.5,6.3,1.5,8.9c1,2.7,2.4,5,4.2,6.8c1.8,1.9,3.9,3.3,6.2,4.4s4.9,1.6,7.5,1.6c2.1,0,4-0.3,5.9-0.8c1.9-0.5,3.8-1.4,5.5-2.5
		c1.8-1.2,3.5-2.7,5-4.5l7.7,9c-3.4,3.6-7.2,6.3-11.5,8c-4.3,1.7-8.8,2.5-13.2,2.5C471.1,505,466.7,504.2,462.6,502.6z"/>
	<path class="st2" d="M517.8,503.8v-11.1h18.5v-71h-17.6v-11.1h31.8v82h18.3v11.1H517.8z"/>
	<path class="st2" d="M610.2,505c-2.6,0-5.1-0.3-7.3-1c-2.3-0.7-4.4-1.8-6.2-3.2c-1.9-1.5-3.5-3.3-4.8-5.5c-1.4-2.2-2.4-4.9-3.1-8
		c-0.7-3.1-1.1-6.6-1.1-10.6l0.1-36.8h13.7v36.7c0,3.2,0.3,5.9,0.9,8.1c0.6,2.2,1.4,4,2.5,5.4c1.1,1.4,2.3,2.3,3.7,2.9
		c1.4,0.6,2.9,0.9,4.5,0.9c2.1,0,4-0.4,5.7-1.1c1.8-0.7,3.3-1.8,4.7-3.4c1.4-1.5,2.4-3.4,3.1-5.7s1-5,1-8.1v-35.7h14v53.9
		c0,1.8,0.1,3.6,0.2,5.2c0.1,1.6,0.5,3.2,1.2,4.9h-13c-0.5-1.1-0.8-2.1-1-3.2c-0.2-1-0.3-2.1-0.3-3.1c0-1-0.1-2.1-0.1-3.2
		c-0.9,1.8-2.1,3.3-3.4,4.6c-1.4,1.3-2.8,2.4-4.5,3.3c-1.6,0.9-3.3,1.5-5,2C614,504.8,612.2,505,610.2,505z"/>
	<path class="st2" d="M683.5,503.9c-2.2-0.7-4.2-1.7-6.2-3.1c-1.9-1.4-3.6-3-5.1-5l-2.9,8h-10.1v-93.1h14h1.3v1.3
		c-0.5,0.6-0.8,1.2-0.9,1.8c-0.1,0.7-0.2,1.8-0.2,3.4v31c0.9-1.5,2.1-2.8,3.4-4c1.3-1.2,2.7-2.2,4.3-3.1c1.5-0.9,3.2-1.6,4.9-2
		c1.7-0.5,3.4-0.7,5.1-0.7c3.9,0.1,7.5,0.8,10.7,2.1c3.2,1.3,6,3.3,8.3,6c2.3,2.7,4.1,6.1,5.4,10.1s1.9,8.7,1.9,14.1
		c0,5.8-0.7,10.8-2.2,15.1c-1.4,4.3-3.4,7.9-6,10.7c-2.5,2.8-5.4,4.9-8.7,6.3c-3.3,1.4-6.7,2.1-10.2,2.1
		C688,505,685.7,504.6,683.5,503.9z M693.7,492.7c1.8-0.7,3.5-1.9,4.9-3.7c1.4-1.7,2.6-4,3.4-6.8c0.8-2.8,1.3-6.2,1.3-10.2
		c0-3.7-0.3-7-1-9.8c-0.7-2.8-1.7-5.2-3-7.1c-1.3-1.9-2.9-3.4-4.8-4.3c-1.9-0.9-4-1.4-6.2-1.4c-3.1,0-5.7,0.9-7.9,2.7
		c-2.2,1.8-3.9,4.4-5.1,7.7c-1.2,3.3-1.8,7.2-1.8,11.7c0,3.5,0.3,6.7,0.8,9.4c0.6,2.8,1.4,5.1,2.6,7c1.2,1.9,2.7,3.3,4.5,4.3
		c1.8,1,4,1.5,6.7,1.5C690,493.8,691.9,493.4,693.7,492.7z"/>
</g>
<g>
	<path class="st3" d="M74.4,9.6c1.9-0.1,3.1-0.3,4.3-0.3c24.2,0,48.5,0.1,72.7-0.1c2.9,0,4.2,0.8,5,3.6c4.7,16.8,9.6,33.5,14.4,50.3
		c4.6,15.7,9.2,31.4,13.7,47.2c4.4,15.4,8.7,30.8,13.2,46.2c3.7,13,7.6,25.9,11.4,38.8c0.5,1.7,1,3.4,2.4,5.1
		c1.9-5.2,3.8-10.4,5.6-15.7c5.3-15.4,10.5-30.8,15.8-46.2c5.5-16.1,11-32.3,16.6-48.4c5.1-14.9,10.3-29.9,15.4-44.8
		c3.7-10.9,7.5-21.9,11.2-32.9c0.8-2.4,2-3.3,4.5-3.3c14.5,0.1,29,0.1,43.5,0c2.3,0,3.3,0.8,4,2.9c6.1,17.9,12.2,35.8,18.3,53.7
		c6.7,19.5,13.5,39,20.2,58.6c6.3,18.5,12.6,36.9,18.9,55.4c2.3,6.7,4.7,13.4,6.8,20.1c0.5,1.8,0.5,4,0,5.8
		c-8.1,28.1-16.3,56.2-24.4,84.3c-1.1,3.7-2.1,7.4-3.3,11.1c-0.3,1-0.8,1.9-1.2,2.9c-0.3,0-0.7,0-1,0
		c-19.9-60.4-39.8-120.8-59.7-181.1c-0.3,0-0.6,0-0.8,0c-1.1,3.1-2.3,6.1-3.4,9.2c-7.6,23-15.1,46-22.6,69.1
		c-5.3,16.2-10.6,32.4-16,48.5c-7.7,23.3-15.5,46.5-23.3,69.7c-0.3,0.9-0.5,1.9-0.7,2.9c-0.5,2.1-1.6,3-3.9,3c-19-0.1-38-0.1-57,0
		c-2.4,0-3.3-1-3.9-3c-6.3-20.8-12.7-41.7-19.1-62.5c-7.8-25.3-15.7-50.6-23.5-76c-6.7-21.6-13.3-43.3-19.9-64.9
		c-6.5-21.3-13-42.6-19.6-63.8C84.1,40.1,79.3,25.2,74.4,9.6z"/>
</g>
</svg>
